<svg width="160" height="160" viewBox="0 0 160 160" fill="none" xmlns="http://www.w3.org/2000/svg">
<path d="M89.3744 16.9295C89.2204 16.9236 89.0683 16.9662 88.9398 17.0513C88.8112 17.1364 88.7126 17.2597 88.6579 17.4038L88.6558 17.4092C88.27 18.5232 87.6717 19.5518 86.8941 20.4378C86.088 21.3571 85.1047 22.1044 84.0031 22.6349C82.7647 23.2381 81.4051 23.551 80.0276 23.5497C78.3335 23.5495 76.6726 23.0797 75.2295 22.1924C73.7429 21.2789 72.5497 19.9579 71.7917 18.3863C71.6426 18.0786 71.5108 17.7628 71.397 17.4404C71.337 17.2862 71.2304 17.1546 71.092 17.0639C70.9537 16.9732 70.7905 16.9279 70.6252 16.9343C64.0511 17.4824 57.6419 19.2798 51.7414 22.23L47.7734 24.2141C47.7734 26.6307 50.0959 26.5762 52.415 25.8952L66.0409 22.9476C66.8923 22.8703 67.7432 23.0999 68.4402 23.5949C69.1372 24.0899 69.6342 24.8178 69.8416 25.6472L73.9346 46.7904H86.1125L90.2055 25.6472C90.4128 24.8178 90.9098 24.0899 91.6068 23.5948C92.3038 23.0998 93.1548 22.8702 94.0062 22.9476L107.632 25.8952C109.951 26.5762 112.274 26.6307 112.274 24.2141L108.307 22.2307C102.406 19.2801 95.9953 17.4825 89.4202 16.9346L89.3744 16.9295Z" fill="#EB004B"/>
<path d="M80.0234 20.9889C84.4761 20.9889 88.0858 17.3792 88.0858 12.9265C88.0858 8.4737 84.4761 4.86401 80.0234 4.86401C75.5706 4.86401 71.9609 8.4737 71.9609 12.9265C71.9609 17.3792 75.5706 20.9889 80.0234 20.9889Z" fill="#EB004B"/>
<path d="M139.406 56.5345C139.334 56.3982 139.221 56.2881 139.083 56.2195C138.945 56.1509 138.789 56.1274 138.636 56.1523H138.631C137.474 56.3773 136.284 56.3755 135.127 56.1469C133.927 55.9109 132.787 55.4352 131.776 54.7483C130.633 53.9792 129.68 52.9595 128.99 51.7669C128.141 50.3013 127.714 48.6288 127.758 46.9352C127.802 45.1909 128.346 43.4959 129.325 42.0518C129.517 41.7685 129.724 41.4962 129.946 41.2359C130.049 41.1066 130.109 40.9484 130.118 40.7832C130.127 40.618 130.084 40.4542 129.996 40.3144V40.3144C126.224 34.9025 121.453 30.2601 115.941 26.636L112.234 24.199C110.143 25.4115 111.356 27.3932 113.108 29.0574L122.495 39.3647C122.989 40.0623 123.217 40.9135 123.139 41.7646C123.06 42.6158 122.68 43.4108 122.067 44.0063L105.831 58.1549L111.941 68.6889L132.284 61.6219C133.105 61.385 133.984 61.4497 134.762 61.8043C135.54 62.1589 136.166 62.78 136.526 63.5554L140.811 76.8215C141.386 79.1691 142.504 81.2056 144.594 79.993L144.32 75.5669C143.911 68.9816 142.25 62.5347 139.425 56.5721L139.406 56.5345Z" fill="#FF8A00"/>
<path d="M138.177 54.4992C142.629 54.4992 146.239 50.8895 146.239 46.4367C146.239 41.9839 142.629 38.3743 138.177 38.3743C133.724 38.3743 130.114 41.9839 130.114 46.4367C130.114 50.8895 133.724 54.4992 138.177 54.4992Z" fill="#FF8A00"/>
<path d="M89.3807 143.07C89.2265 143.076 89.0744 143.034 88.9458 142.949C88.8171 142.864 88.7185 142.74 88.6637 142.596L88.662 142.591C88.2763 141.477 87.678 140.449 86.9003 139.563C86.0944 138.643 85.1111 137.896 84.0093 137.365C82.771 136.762 81.4115 136.449 80.0341 136.451C78.3399 136.451 76.6789 136.921 75.2357 137.808C73.7491 138.722 72.5558 140.043 71.7979 141.614C71.6489 141.922 71.5172 142.238 71.4032 142.56C71.3432 142.714 71.2367 142.846 71.0983 142.937C70.96 143.028 70.7967 143.073 70.6314 143.066V143.066C64.0572 142.519 57.6479 140.721 51.7473 137.771L47.7793 135.787C47.7793 133.37 50.1021 133.424 52.4209 134.106L66.0467 137.053C66.8981 137.131 67.7492 136.901 68.4461 136.406C69.1431 135.911 69.6401 135.183 69.8474 134.354L73.9405 113.213H86.1183L90.2114 134.354C90.4188 135.183 90.9158 135.911 91.6127 136.406C92.3097 136.901 93.1607 137.131 94.012 137.053L107.638 134.106C109.957 133.424 112.28 133.37 112.28 135.787L108.313 137.77C102.411 140.721 96.0012 142.518 89.426 143.066L89.3807 143.07Z" fill="#EB004B"/>
<path d="M80.0292 155.136C84.482 155.136 88.0917 151.526 88.0917 147.074C88.0917 142.621 84.482 139.011 80.0292 139.011C75.5765 139.011 71.9668 142.621 71.9668 147.074C71.9668 151.526 75.5765 155.136 80.0292 155.136Z" fill="#EB004B"/>
<path d="M139.412 103.465C139.34 103.601 139.227 103.711 139.089 103.78C138.951 103.849 138.795 103.872 138.642 103.847H138.637C137.48 103.622 136.289 103.624 135.133 103.853C133.933 104.089 132.793 104.565 131.782 105.251C130.639 106.021 129.686 107.04 128.997 108.233C128.147 109.698 127.72 111.371 127.763 113.064C127.808 114.809 128.352 116.504 129.331 117.948C129.523 118.231 129.73 118.504 129.951 118.764C130.055 118.893 130.115 119.052 130.124 119.217C130.133 119.382 130.09 119.546 130.002 119.686V119.686C126.229 125.097 121.459 129.74 115.947 133.364L112.24 135.801C110.149 134.588 111.361 132.607 113.114 130.942L122.501 120.635C122.995 119.937 123.223 119.086 123.145 118.235C123.066 117.384 122.686 116.589 122.073 115.993L106.89 102.898L112.999 92.3638L132.29 98.3781C133.111 98.6148 133.99 98.55 134.768 98.1954C135.546 97.8409 136.172 97.2199 136.532 96.4446L140.817 83.1782C141.391 80.8306 142.509 78.7941 144.6 80.0067L144.326 84.4331C143.917 91.0183 142.256 97.4652 139.431 103.428L139.412 103.465Z" fill="#4CD700"/>
<path d="M138.183 121.625C142.635 121.625 146.245 118.015 146.245 113.563C146.245 109.11 142.635 105.5 138.183 105.5C133.73 105.5 130.12 109.11 130.12 113.563C130.12 118.015 133.73 121.625 138.183 121.625Z" fill="#4CD700"/>
<path d="M20.594 56.5058C20.6661 56.3695 20.7791 56.2593 20.9172 56.1907C21.0552 56.1221 21.2113 56.0985 21.3634 56.1233H21.3689C22.5263 56.3484 23.7164 56.3465 24.8731 56.1179C26.0729 55.8821 27.2127 55.4064 28.2242 54.7193C29.3671 53.9501 30.3197 52.9305 31.0094 51.7379C31.8592 50.2722 32.286 48.5996 32.2423 46.9059C32.1982 45.1617 31.6541 43.4668 30.6747 42.0228C30.4833 41.7395 30.2763 41.467 30.0547 41.2066C29.9514 41.0774 29.8911 40.9191 29.882 40.7539C29.873 40.5887 29.9157 40.4248 30.0042 40.2851V40.2851C33.7768 34.8732 38.5473 30.2308 44.0597 26.6067L47.7665 24.1697C49.8573 25.3822 48.6447 27.3639 46.8921 29.0284L37.5049 39.3358C37.011 40.0334 36.7828 40.8846 36.8614 41.7357C36.94 42.5869 37.3202 43.3819 37.9335 43.9773L54.1692 58.1256L48.0596 68.6596L27.716 61.5946C26.8945 61.358 26.0154 61.4228 25.2375 61.7773C24.4596 62.1319 23.8341 62.7529 23.4738 63.5282L19.1883 76.7946C18.6141 79.1421 17.496 81.1787 15.4053 79.9661L15.6801 75.5397C16.0883 68.9543 17.7495 62.5074 20.5744 56.5448L20.594 56.5058Z" fill="#4CD700"/>
<path d="M21.8232 54.4706C26.2759 54.4706 29.8856 50.8609 29.8856 46.4081C29.8856 41.9554 26.2759 38.3457 21.8232 38.3457C17.3704 38.3457 13.7607 41.9554 13.7607 46.4081C13.7607 50.8609 17.3704 54.4706 21.8232 54.4706Z" fill="#4CD700"/>
<path d="M20.5878 103.435C20.6599 103.571 20.773 103.681 20.911 103.75C21.049 103.819 21.2051 103.842 21.3573 103.817H21.3627C22.5201 103.592 23.7101 103.594 24.8669 103.823C26.0666 104.059 27.2064 104.534 28.218 105.221C29.3609 105.99 30.3135 107.01 31.0032 108.203C31.853 109.668 32.2798 111.341 32.2361 113.035C32.192 114.779 31.6478 116.474 30.6685 117.918C30.477 118.201 30.27 118.474 30.0482 118.734C29.945 118.863 29.8847 119.021 29.8756 119.187C29.8666 119.352 29.9092 119.516 29.9977 119.655C33.7702 125.067 38.5405 129.71 44.0528 133.334L47.76 135.771C49.8507 134.558 48.6382 132.577 46.8856 130.912L37.4984 120.605C37.0045 119.907 36.7762 119.056 36.8547 118.205C36.9332 117.354 37.3134 116.559 37.9266 115.963L54.1627 101.815L48.053 91.2806L27.7101 98.3476C26.8886 98.5844 26.0095 98.5197 25.2316 98.1651C24.4536 97.8105 23.8281 97.1895 23.468 96.4141L19.1825 83.148C18.6082 80.8001 17.4902 78.7636 15.3994 79.9762L15.6739 84.4026C16.0824 90.9879 17.7437 97.4348 20.5685 103.397L20.5878 103.435Z" fill="#FF8A00"/>
<path d="M21.8173 121.597C26.2701 121.597 29.8798 117.987 29.8798 113.534C29.8798 109.082 26.2701 105.472 21.8173 105.472C17.3646 105.472 13.7549 109.082 13.7549 113.534C13.7549 117.987 17.3646 121.597 21.8173 121.597Z" fill="#FF8A00"/>
<path d="M54.7221 117.929L55.0578 118.139L52.5352 122.169L55.2215 123.85L57.7442 119.821L58.08 120.031C58.1241 120.059 58.1732 120.078 58.2245 120.086C58.2758 120.095 58.3283 120.094 58.3791 120.082C58.4298 120.07 58.4777 120.049 58.5201 120.018C58.5625 119.988 58.5985 119.95 58.6261 119.906L63.6715 111.847C63.8385 111.58 63.8926 111.257 63.822 110.95C63.7515 110.643 63.562 110.377 63.2951 110.209L61.2802 108.948C61.013 108.781 60.6904 108.726 60.3833 108.797C60.0762 108.868 59.8096 109.057 59.6422 109.324L54.5967 117.383C54.5691 117.427 54.5504 117.476 54.5417 117.528C54.5331 117.579 54.5346 117.631 54.5462 117.682C54.5579 117.733 54.5794 117.781 54.6096 117.823C54.6398 117.865 54.678 117.901 54.7221 117.929V117.929Z" fill="#00A9D3"/>
<path d="M47.9953 128.676L51.3531 130.778C51.3972 130.806 51.4463 130.824 51.4976 130.833C51.5489 130.841 51.6014 130.84 51.6521 130.828C51.7027 130.817 51.7506 130.795 51.793 130.765C51.8354 130.735 51.8714 130.696 51.8989 130.652L52.1093 130.316L53.5096 131.193C53.4565 131.433 53.4788 131.684 53.5736 131.91C53.6684 132.137 53.831 132.329 54.0391 132.46L56.0539 133.721C56.098 133.749 56.1472 133.767 56.1985 133.776C56.2499 133.785 56.3024 133.783 56.3531 133.771C56.4038 133.76 56.4517 133.738 56.4941 133.708C56.5365 133.678 56.5725 133.64 56.6001 133.595L59.1228 129.566C59.1505 129.522 59.1691 129.473 59.1778 129.422C59.1864 129.37 59.1848 129.318 59.1731 129.267C59.1614 129.216 59.1399 129.168 59.1097 129.126C59.0795 129.084 59.0412 129.048 58.9971 129.02L56.9826 127.759C56.7742 127.629 56.5306 127.566 56.2853 127.58C56.0399 127.593 55.8048 127.683 55.6122 127.835L54.2115 126.959L55.2619 125.28C55.2895 125.236 55.3081 125.187 55.3168 125.135C55.3254 125.084 55.3239 125.031 55.3122 124.981C55.3005 124.93 55.279 124.882 55.2487 124.84C55.2185 124.797 55.1803 124.761 55.1361 124.734L51.7783 122.631C51.7342 122.604 51.6851 122.585 51.6338 122.576C51.5825 122.568 51.53 122.569 51.4793 122.581C51.4285 122.593 51.3806 122.614 51.3382 122.644C51.2958 122.674 51.2598 122.713 51.2321 122.757L49.7635 125.103C47.1435 123.361 46.1162 121.38 46.3395 118.542C46.3451 118.47 46.3308 118.398 46.2982 118.333C46.2656 118.269 46.2159 118.214 46.1545 118.176C46.1276 118.159 46.0989 118.145 46.0688 118.135C45.9846 118.107 45.8935 118.109 45.8101 118.139C45.7267 118.169 45.6558 118.226 45.6087 118.301C44.5517 119.994 44.2093 122.037 44.6567 123.982C45.1041 125.927 46.3048 127.615 47.9953 128.676V128.676Z" fill="#74CCE5"/>
<path d="M44.3428 40.1022L51.8025 50.417C54.3959 47.9718 57.6243 46.3048 61.1195 45.606C62.8782 42.506 65.4726 39.9626 68.607 38.2659L61.1456 27.9504" fill="#74CCE5"/>
<path d="M51.7462 51.0158L44.0215 40.3341L44.6652 39.8692L51.8634 49.8212C54.4118 47.5362 57.5156 45.9605 60.8643 45.2518C62.586 42.2933 65.0545 39.8389 68.0228 38.1342L60.825 28.182L61.4687 27.7168L69.1934 38.3982L68.7956 38.6133C65.7301 40.2801 63.1908 42.7697 61.4636 45.8016L61.3745 45.9571L61.199 45.9931C57.7788 46.6838 54.6193 48.3157 52.0765 50.7051L51.7462 51.0158Z" fill="#00A9D3"/>
<path d="M53.1621 33.7437L60.7936 44.2957C62.0306 41.8323 63.9743 39.6026 66.5871 37.6552L58.899 27.0247C56.2611 28.9904 54.3354 31.2478 53.1621 33.7437Z" fill="#74CCE5"/>
<path d="M52.3433 34.3342C49.6071 34.6673 46.8601 35.7894 44.167 37.6785L51.8551 48.3091C54.5214 46.4372 57.2477 45.2893 59.9747 44.8872L52.3433 34.3342Z" fill="#00A9D3"/>
<path d="M130.31 87.3235L125.126 87.0911C125.244 87.6764 125.554 88.2054 126.007 88.5941C126.461 88.9828 127.031 89.2087 127.627 89.236C128.224 89.262 128.812 89.0879 129.298 88.7413C129.784 88.3948 130.14 87.8957 130.31 87.3235V87.3235Z" fill="#74CCE5"/>
<path d="M132.337 72.3141L132.454 69.7128C132.474 69.2676 132.316 68.8329 132.015 68.504C131.715 68.1752 131.296 67.9792 130.851 67.9591L126.99 67.7864C126.545 67.7664 126.11 67.9241 125.782 68.2246C125.453 68.5252 125.257 68.9441 125.237 69.3892L125.12 71.9909L132.337 72.3141Z" fill="#74CCE5"/>
<path d="M123.689 74.4535L123.84 71.0994L117.882 72.2899C117.458 72.3747 117.085 72.6243 116.845 72.9839C116.605 73.3435 116.518 73.7836 116.603 74.2075C116.645 74.4174 116.728 74.617 116.847 74.7948C116.966 74.9726 117.119 75.1253 117.297 75.244C117.475 75.3628 117.675 75.4453 117.885 75.4868C118.094 75.5284 118.311 75.5281 118.52 75.4861L123.689 74.4535Z" fill="#74CCE5"/>
<path d="M122.638 86.0062L133.567 86.4961L135.084 86.5639C135.378 86.5768 135.931 86.259 135.124 85.683C134.527 85.2578 132.777 83.122 131.951 80.9293L132.25 74.2454L125.034 73.9219L124.733 80.6325C123.711 82.7331 121.791 84.6886 121.161 85.0572C120.304 85.559 120.828 85.9259 121.122 85.9381L122.638 86.0062Z" fill="#00A9D3"/>
<path d="M127.915 94.5308C128.043 94.5363 128.168 94.4909 128.262 94.4045C128.356 94.3181 128.413 94.1978 128.418 94.07L128.523 91.7452C128.529 91.6173 128.483 91.4925 128.397 91.3981C128.311 91.3037 128.19 91.2474 128.062 91.2417C127.95 91.2366 127.84 91.2707 127.751 91.3381C127.661 91.4055 127.598 91.502 127.572 91.611C127.564 91.6409 127.56 91.6714 127.559 91.7021L127.455 94.027C127.452 94.0903 127.461 94.1536 127.483 94.2132C127.505 94.2728 127.538 94.3275 127.58 94.3743C127.623 94.4211 127.675 94.459 127.732 94.4858C127.79 94.5127 127.852 94.528 127.915 94.5308Z" fill="#74CCE5"/>
<path d="M133.887 92.3644C133.934 92.3217 133.972 92.2702 133.999 92.2128C134.026 92.1554 134.041 92.0933 134.044 92.03C134.047 91.9667 134.037 91.9034 134.015 91.8438C133.994 91.7843 133.961 91.7295 133.918 91.6828L132.348 89.965C132.305 89.9183 132.253 89.8804 132.196 89.8535C132.138 89.8267 132.076 89.8114 132.013 89.8086C131.95 89.8058 131.886 89.8154 131.827 89.837C131.767 89.8586 131.713 89.8918 131.666 89.9345C131.594 89.9993 131.544 90.0843 131.522 90.1781C131.504 90.2548 131.504 90.3349 131.524 90.4113C131.544 90.4877 131.582 90.5581 131.635 90.6162L133.205 92.3339C133.248 92.3807 133.3 92.4187 133.357 92.4455C133.414 92.4724 133.477 92.4877 133.54 92.4905C133.603 92.4933 133.666 92.4837 133.726 92.462C133.786 92.4404 133.84 92.4072 133.887 92.3644V92.3644Z" fill="#74CCE5"/>
<path d="M122.841 91.8695L124.559 90.2992C124.654 90.2128 124.71 90.0925 124.715 89.9646C124.721 89.8368 124.676 89.712 124.59 89.6175C124.547 89.5707 124.495 89.5328 124.438 89.5059C124.381 89.479 124.318 89.4638 124.255 89.4609C124.192 89.4581 124.129 89.4678 124.069 89.4894C124.009 89.511 123.955 89.5442 123.908 89.587L122.19 91.157C122.119 91.222 122.069 91.3068 122.047 91.4006C122.028 91.4774 122.029 91.5575 122.048 91.6339C122.068 91.7104 122.106 91.7808 122.16 91.839C122.203 91.8858 122.254 91.9237 122.311 91.9505C122.369 91.9774 122.431 91.9926 122.494 91.9955C122.558 91.9983 122.621 91.9886 122.68 91.967C122.74 91.9454 122.795 91.9123 122.841 91.8695V91.8695Z" fill="#74CCE5"/>
<path d="M101.002 128.311C100.228 126.999 99.9 125.471 100.069 123.957V123.957C100.071 123.939 100.073 123.921 100.075 123.904C100.128 123.459 100.453 120.237 99.1678 118.053L98.8564 117.524L104.788 114.034L105.1 114.563C106.385 116.748 109.359 118.028 109.773 118.199C109.79 118.205 109.807 118.212 109.823 118.219C111.228 118.806 112.405 119.835 113.175 121.149C113.645 121.949 113.953 122.833 114.082 123.751C114.21 124.67 114.157 125.605 113.924 126.502C113.691 127.4 113.284 128.243 112.725 128.983C112.166 129.724 111.467 130.347 110.668 130.817C109.054 131.766 107.129 132.035 105.316 131.565C103.503 131.095 101.952 129.925 101.002 128.311V128.311Z" fill="#74CCE5"/>
<path d="M28.9252 74.7928L35.4871 80.8573C43.1711 70.1173 22.9854 68.4338 22.9854 68.4338C24.9477 89.1966 34.0008 82.0302 34.0008 82.0302L28.9252 74.7928ZM33.1701 89.2548L36.3301 84.3056C28.4899 80.5842 29.7475 93.8351 29.7475 93.8351C42.9488 90.1523 37.2618 85.1303 37.2618 85.1303L33.1701 89.2548ZM44.7825 83.7371C39.7506 87.2945 35.5891 82.5395 35.5891 82.5395C41.7478 85.4233 44.2559 81.6345 44.2559 81.6345L44.7825 83.7371Z" fill="#74CCE5"/>
<path d="M111.847 34.1842C113.103 34.9495 114.005 36.1813 114.355 37.6099C114.705 39.0385 114.475 40.5477 113.715 41.8072C113.715 41.8072 111.177 46.8855 98.5688 47.7596C93.5166 36.1834 96.8433 31.5815 96.8433 31.5815C97.6086 30.3254 98.8404 29.4236 100.269 29.0734C101.698 28.7233 103.207 28.9534 104.466 29.7133C105.173 30.1429 105.774 30.7247 106.227 31.4163C106.68 32.108 106.972 32.892 107.083 33.7112C107.862 33.429 108.694 33.325 109.519 33.4069C110.343 33.4887 111.139 33.7543 111.847 34.1842V34.1842ZM112.66 41.1699C113.252 40.1907 113.431 39.0169 113.159 37.9056C112.887 36.7942 112.186 35.836 111.209 35.2409C110.658 34.9062 110.039 34.6999 109.397 34.6373C108.756 34.5747 108.109 34.6575 107.504 34.8794L106.063 35.3923L105.86 33.8806C105.777 33.2432 105.551 32.6327 105.2 32.0944C104.849 31.5561 104.381 31.1038 103.831 30.7711C102.852 30.1793 101.678 29.9997 100.567 30.2717C99.4555 30.5437 98.4973 31.2451 97.9021 32.2222L97.8644 32.2787L97.8492 32.3011C97.7743 32.4139 97.1492 33.4869 97.0239 35.6891C96.9608 37.2486 97.0962 38.8097 97.4267 40.3351C97.8747 42.4372 98.5214 44.4919 99.3579 46.4718C101.5 46.2922 103.622 45.9165 105.696 45.3493C107.198 44.9323 108.642 44.3281 109.994 43.551C111.904 42.4069 112.553 41.3589 112.619 41.2471L112.647 41.1926L112.66 41.1699Z" fill="#74CCE5"/>
<path d="M111.209 35.2402C112.186 35.8353 112.887 36.7935 113.159 37.9049C113.431 39.0162 113.252 40.1901 112.66 41.1692L112.645 41.1916L112.617 41.2461C112.551 41.3569 111.902 42.4048 109.992 43.55C108.64 44.3271 107.196 44.9313 105.694 45.3483C103.62 45.9155 101.498 46.2912 99.3558 46.4708C98.5193 44.4909 97.8727 42.4361 97.4247 40.3341C97.0942 38.8087 96.9588 37.2475 97.0219 35.6881C97.1472 33.4859 97.7723 32.4129 97.8472 32.3001L97.8624 32.2777L97.9 32.2211C98.4952 31.244 99.4535 30.5427 100.565 30.2707C101.676 29.9987 102.85 30.1783 103.829 30.77C104.379 31.1028 104.847 31.5551 105.198 32.0934C105.549 32.6317 105.775 33.2422 105.858 33.8796L106.061 35.3913L107.502 34.8784C108.107 34.6562 108.755 34.5733 109.397 34.636C110.038 34.6986 110.658 34.9051 111.209 35.2402V35.2402ZM103.294 32.2449C103.315 32.2106 103.329 32.1725 103.335 32.1329C103.341 32.0933 103.339 32.0529 103.33 32.0141C103.32 31.9752 103.303 31.9386 103.279 31.9063C103.255 31.874 103.225 31.8468 103.191 31.8261C102.456 31.3823 101.576 31.2474 100.742 31.451C99.9078 31.6545 99.1883 32.1799 98.7406 32.9123C98.6987 32.9833 98.6863 33.0678 98.706 33.1479C98.7257 33.2279 98.7759 33.2971 98.8459 33.3405C98.9169 33.3824 99.0015 33.3948 99.0816 33.3751C99.1616 33.3554 99.2307 33.3052 99.2742 33.2352C99.6335 32.642 100.213 32.2157 100.887 32.0497C101.56 31.8838 102.272 31.9917 102.865 32.3499C102.936 32.3922 103.021 32.4049 103.101 32.3852C103.182 32.3656 103.251 32.3152 103.294 32.2449V32.2449Z" fill="#74CCE5"/>
<path d="M103.19 31.8264C103.225 31.8471 103.255 31.8744 103.278 31.9067C103.302 31.9389 103.319 31.9755 103.329 32.0144C103.338 32.0533 103.34 32.0937 103.334 32.1333C103.328 32.1729 103.315 32.2109 103.294 32.2452C103.25 32.3152 103.181 32.3654 103.101 32.3851C103.021 32.4047 102.937 32.3922 102.866 32.3502C102.272 31.9921 101.56 31.8841 100.887 32.0501C100.214 32.2161 99.6339 32.6424 99.2746 33.2355C99.2312 33.3055 99.162 33.3558 99.082 33.3755C99.0019 33.3952 98.9174 33.3828 98.8464 33.3409C98.7763 33.2974 98.7261 33.2283 98.7064 33.1482C98.6867 33.0682 98.6991 32.9836 98.741 32.9126C99.1887 32.1805 99.908 31.6553 100.742 31.4518C101.575 31.2483 102.456 31.383 103.19 31.8264Z" fill="#00A9D3"/>
<path d="M99.0693 46.8913C99.0693 46.8913 105.947 46.5187 110.535 42.862C116.252 38.3051 111.274 35.8674 111.274 35.8674C111.274 35.8674 110.107 42.1397 99.0693 46.8913Z" fill="#00A9D3"/>
<path d="M104.43 113.324L102.96 110.827C102.774 110.509 102.468 110.279 102.112 110.187C101.756 110.095 101.377 110.147 101.06 110.334L100.607 110.601L99.7987 110.264L98.0729 111.281L97.9739 112.15L97.5206 112.417C97.2035 112.604 96.9736 112.909 96.8813 113.266C96.789 113.622 96.8419 114 97.0283 114.318L98.4977 116.815L104.43 113.324Z" fill="#00A9D3"/>
<path d="M36.7949 83.3825C36.7949 83.3825 40.8717 86.2816 44.568 83.745L44.2055 82.1323C44.2055 82.1323 42.0125 85.5569 36.7949 83.3825Z" fill="#00A9D3"/>
<path d="M100.876 122.913C100.876 122.913 100.359 129.025 105.623 130.861C110.886 132.698 112.999 127.004 112.999 127.004C112.999 127.004 109.968 130.861 107.121 129.943C107.121 129.943 103.255 129.012 100.876 122.913Z" fill="#00A9D3"/>
<path d="M44.7021 79.8759C44.5642 60.2685 60.4902 44.2405 80.4574 44.4316C90.0888 44.5238 98.4403 48.0707 105.263 54.9599C112.086 61.849 115.479 70.2554 115.506 79.8546C115.532 88.9043 112.481 96.9874 106.304 103.699C99.0322 111.602 89.9032 115.53 79.1818 115.302C60.4949 114.905 44.6146 99.686 44.7021 79.8759ZM109.404 89.1526C108.848 89.4318 108.301 89.7344 107.732 89.9827C107.54 90.0574 107.371 90.1784 107.238 90.335C107.105 90.4916 107.013 90.6789 106.97 90.8798C106.801 91.4997 106.475 92.0656 106.025 92.5234C105.265 93.2183 104.579 93.8636 104.619 94.999C104.624 95.3394 104.529 95.6738 104.345 95.9605C103.657 96.9918 102.916 97.9875 102.199 99.0002C101.437 100.076 100.539 100.938 99.1558 101.163C98.882 101.249 98.6495 101.433 98.5029 101.68C98.0903 102.314 97.7339 102.985 97.309 103.721C97.523 103.77 97.7432 103.784 97.9615 103.763C100.573 102.91 103.18 102.045 105.783 101.167C106.137 101.069 106.456 100.874 106.704 100.604C109.241 97.3168 111.164 93.5981 112.38 89.6273C112.619 88.8186 112.8 87.9926 113.061 86.9647L109.381 89.178L109.404 89.1526ZM88.6323 82.7889C82.6571 83.7063 76.5764 83.6991 70.6034 82.7676C70.8876 84.422 70.0613 86.1996 71.8017 87.3953C71.9653 87.5081 72.005 87.856 72.0321 88.1024C72.0898 88.4703 72.0723 88.8461 71.9809 89.2071C71.8894 89.5681 71.7258 89.9068 71.4998 90.2029C71.3048 90.445 71.1965 90.7455 71.1922 91.0564C71.2813 92.3519 71.4338 93.6431 71.5683 94.9807C73.6482 95.1501 75.6339 95.3656 77.6288 95.4611C79.2709 95.5394 80.9212 95.5224 82.5651 95.4638C84.1049 95.4089 85.6427 95.2605 87.1765 95.1054C87.2978 95.0659 87.4076 94.9974 87.4962 94.9056C87.5848 94.8139 87.6495 94.7018 87.6847 94.5792C87.8961 93.1766 88.0767 91.7671 88.2166 90.3564C88.324 89.2756 88.364 88.1881 88.4219 87.1039C88.4985 85.6837 88.5618 84.262 88.6323 82.7889ZM69.503 81.6529C69.7577 76.4859 70.0064 71.4388 70.2466 66.5688L59.5348 62.9854C59.4096 63.2146 59.3007 63.4523 59.2088 63.6968C58.1623 66.9039 56.9728 70.071 56.9003 73.517C56.8789 74.5429 56.5275 75.5579 56.4533 76.5869C56.3731 77.714 56.8976 78.0657 58.0417 77.8333C58.5218 77.7357 59.0127 77.6927 59.5073 77.6239C59.6008 78.9767 59.593 79.0018 60.8286 79.3857C62.5565 79.921 64.2885 80.4471 66.036 80.913C67.1981 81.2203 68.389 81.4182 69.5036 81.6529H69.503ZM71.3386 66.5668C71.1089 69.2898 70.8117 71.9805 70.6755 74.6794C70.5668 76.8376 70.6701 79.0059 70.6417 81.1695C70.6345 81.7434 70.9022 81.9209 71.3992 81.9704C73.0715 82.1371 74.7439 82.463 76.4135 82.4562C79.8587 82.442 83.3043 82.2696 86.7469 82.1195C87.4727 82.032 88.1913 81.8922 88.8969 81.701C88.262 81.0336 87.743 81.1895 87.1884 81.37C86.7798 81.5028 86.2058 81.7549 85.9402 81.5855C85.0259 81.0118 84.181 80.3341 83.4226 79.5659C82.7013 78.8185 82.1809 77.8821 81.5206 77.0707C80.843 76.2382 80.8396 75.4492 81.3708 74.4416C81.5874 73.9119 81.6761 73.3386 81.6297 72.7682C81.6246 72.1923 81.2156 71.5035 81.4193 71.0664C82.042 69.7278 82.8737 68.4861 83.6753 67.1201C79.6178 67.6066 75.5146 67.2343 71.3392 66.5668H71.3386ZM86.7256 59.1278C86.4833 58.2079 86.1774 57.2962 86.0141 56.3594C85.8742 55.549 85.3778 55.5324 84.7737 55.5985C83.7838 55.7062 82.7887 55.9532 81.8068 55.9075C79.2696 55.7899 76.735 55.5792 74.2079 55.3224C73.659 55.2665 73.5188 55.3451 73.41 55.8553C72.9228 58.1483 72.3668 60.4271 71.8908 62.7225C71.693 63.6769 71.633 64.6597 71.4843 65.8313C74.4142 66.0213 77.1992 66.248 79.9882 66.3639C81.3361 66.3869 82.6841 66.3286 84.025 66.1894C84.4299 66.1614 84.8146 66.0012 85.1197 65.7334C85.9155 64.9321 86.6327 64.0533 87.4381 63.1399L85.7678 62.5097C85.7678 62.1099 85.74 61.5919 85.7759 61.0782C85.8118 60.5646 85.9114 60.0578 85.9975 59.4463L86.7256 59.1278ZM87.746 96.0337C82.3588 96.6574 76.9149 96.6096 71.5395 95.8914C72.2998 99.0216 73.0404 101.951 73.7044 104.898C73.8454 105.524 74.2024 105.64 74.6869 105.69C75.4248 105.766 76.1655 105.855 76.9054 105.861C79.502 105.882 82.0992 105.886 84.6954 105.844C84.8554 105.82 85.007 105.756 85.1369 105.66C85.2668 105.563 85.3712 105.436 85.4408 105.29C86.2221 102.291 86.9488 99.277 87.7467 96.0337H87.746ZM86.4318 105.627C86.6095 105.669 86.7915 105.689 86.9739 105.688C89.3598 105.345 91.7371 104.93 94.1311 104.663C95.7736 104.48 96.4298 103.315 97.0898 102.096C97.1684 101.898 97.1811 101.681 97.1261 101.475C96.8378 100.12 96.3705 98.7776 96.2835 97.4099C96.2387 96.5931 96.0434 95.7916 95.7075 95.0457C95.5262 94.6365 95.4178 94.5877 94.9682 94.688C93.1462 95.0945 91.3136 95.4764 89.4661 95.7352C88.7086 95.8412 88.4551 96.1699 88.3372 96.8271C88.0238 98.5791 87.7125 100.333 87.3435 102.073C87.0935 103.255 86.7469 104.416 86.4325 105.627H86.4318ZM58.8832 102.341C58.7264 101.454 58.6502 100.779 58.4828 100.126C58.0701 98.5167 57.5426 96.9335 57.1991 95.3103C56.8996 93.8955 56.5215 92.625 55.0538 91.9782C54.7912 91.8627 54.6306 91.5222 54.4145 91.2935C54.2121 91.0221 53.9699 90.7829 53.6959 90.5841C51.5103 89.4037 49.3074 88.2541 47.1272 87.1042C47.9214 90.916 49.3989 94.5526 51.4883 97.8381C52.2451 99.0605 52.9251 100.452 54.5764 100.79C54.8483 100.869 55.1142 100.968 55.3723 101.084C56.5066 101.491 57.6409 101.896 58.8856 102.34L58.8832 102.341ZM70.4167 65.3851C71.1204 61.8551 71.7976 58.458 72.4773 55.0466L66.616 53.3401C66.7648 53.9411 66.7305 54.6366 67.0497 54.8924C67.5149 55.2651 67.5799 55.5087 67.3855 56.0105C67.3234 56.2924 67.3256 56.5847 67.3919 56.8656C67.4468 57.3501 67.5315 57.8315 67.6026 58.3072H64.9322L65.4485 57.368C63.8758 57.2742 63.4005 57.6201 63.1033 59.0177L64.1401 59.4103C63.1667 59.8847 62.3752 60.6144 61.6922 60.5243C60.5146 60.3688 60.3401 60.9763 60.0402 61.8477C63.3373 63.4571 66.8237 64.6453 70.4174 65.3844L70.4167 65.3851ZM89.706 82.6775C89.4031 86.7183 89.1033 90.7155 88.8004 94.7557C88.9319 94.7806 89.0659 94.7891 89.1995 94.7811C90.5947 94.5355 91.9807 94.218 93.3843 94.0442C94.8124 93.867 95.6093 93.2365 95.905 91.7519C96.066 90.9445 96.7398 90.2737 96.3919 89.3098C96.0582 88.3863 96.1391 87.1683 95.5527 86.5127C94.5 85.3357 94.5746 84.1628 94.8249 82.8435C95.0052 81.8948 94.682 81.5994 93.7537 81.8074C92.3991 82.1103 91.0378 82.3915 89.7067 82.6768L89.706 82.6775ZM52.9905 89.1577L53.1965 88.9385C52.9025 88.2703 52.555 87.627 52.1574 87.0148C51.5943 86.2715 52.114 85.5139 51.9609 84.7977C51.8781 84.3848 51.8826 83.9592 51.9742 83.5482C52.0657 83.1372 52.2423 82.7499 52.4925 82.4112C52.7586 82.0603 52.9283 81.6458 52.9846 81.209C53.0409 80.7722 52.9818 80.3282 52.8133 79.9213C52.6605 79.5463 52.5717 79.1451 52.3986 78.5736C53.6938 79.1407 53.3981 78.0102 53.8863 77.6649L51.5042 76.5066C51.2145 78.4005 51.3219 78.7088 52.2251 78.7972V79.9569C51.3063 79.381 50.5166 78.9134 50.4065 77.8001C50.38 77.5338 50.1849 77.1286 49.9782 77.0622C49.1234 76.7864 48.9015 75.707 47.8675 75.5766C47.4467 75.5227 47.1201 74.7323 46.7477 74.2735C46.682 74.9881 46.5611 75.7236 46.556 76.4601C46.5375 79.0899 46.5432 81.72 46.5732 84.3505C46.5691 84.7552 46.6848 85.1521 46.9058 85.4912C47.1267 85.8303 47.4431 86.0965 47.815 86.2562C49.5659 87.1727 51.267 88.1847 52.9905 89.1577ZM110.878 77.383C110.648 78.4801 110.438 79.4555 110.239 80.4322C109.886 82.1788 108.497 83.3293 107.706 84.8268C107.007 86.1441 106.859 87.6841 107.292 89.1106C108.824 88.2555 110.243 87.4193 111.703 86.6614C112.934 86.0228 113.479 85.1798 113.626 83.6959C113.891 80.7705 113.846 77.8253 113.49 74.9095C113.393 74.3535 113.265 73.8035 113.107 73.2619C112.612 73.6884 112.17 73.9185 111.952 74.2823C111.184 75.6457 109.959 76.6937 108.493 77.2411C109.183 78.2961 109.902 77.4128 110.877 77.383H110.878ZM51.0593 72.5087C50.983 73.0545 50.856 73.592 50.6799 74.1143C50.4231 74.697 50.6358 74.942 51.1284 75.1761C52.2092 75.689 53.2666 76.2518 54.3511 76.7566C54.6967 76.8731 55.0536 76.9526 55.416 76.9938C55.5102 75.9692 55.5905 75.0965 55.6684 74.2495L54.4568 73.8907L55.0971 73.4723C54.8153 73.3239 54.5009 73.2481 54.1824 73.2517C53.9838 73.2368 53.6342 73.2493 53.6118 73.1731C53.2425 71.9195 52.426 72.0889 51.514 72.5727C51.6661 71.3791 52.8146 71.1356 53.6542 71.8152C54.0696 72.1513 54.4765 72.4986 54.9033 72.8201C54.9904 72.9023 55.0989 72.9584 55.2164 72.9819C55.3339 73.0054 55.4556 72.9954 55.5676 72.953C55.6797 72.9106 55.7775 72.8375 55.8499 72.7421C55.9224 72.6467 55.9666 72.5328 55.9774 72.4135C56.5289 70.0189 57.0825 67.6242 57.6832 65.2414C57.9204 64.2962 58.2836 63.3818 58.5895 62.4534C58.0884 62.7485 57.6498 63.1388 57.2987 63.6023C56.5696 64.5201 56.2145 65.7296 55.1192 66.3649C54.8839 66.4726 54.683 66.6433 54.5388 66.8582C54.2254 67.5195 53.7633 68.2134 53.7673 68.893C53.7934 69.225 53.7376 69.5582 53.6048 69.8635C53.4719 70.1688 53.2661 70.4368 53.0054 70.6439C52.9312 69.9972 52.8567 69.3507 52.7588 68.501C52.3619 68.5481 51.9678 68.616 51.578 68.7043C51.2591 68.8115 50.9489 68.9433 50.6504 69.0987C50.4153 69.1714 50.1929 69.2803 49.9914 69.4216C48.9608 70.3817 48.8195 71.6949 48.6362 72.983C48.541 73.6471 48.9045 73.9696 49.5289 74.1173C49.9816 73.5393 49.7248 72.3349 51.0593 72.5087ZM74.4115 106.764C74.6764 108.192 76.2617 111.194 77.3188 112.252C78.8623 113.796 79.9496 113.896 81.6398 112.611C81.9155 112.369 82.1591 112.094 82.3645 111.79C83.5174 110.283 84.3896 108.581 84.9394 106.765L74.4115 106.764ZM72.7026 105.502C72.7307 105.365 72.7473 105.226 72.7521 105.086C72.1307 102.213 71.5219 99.337 70.8619 96.4728C70.7843 96.137 70.4214 95.867 70.0759 95.4133C69.918 95.9151 69.9044 96.1719 69.773 96.3315C69.5464 96.6576 69.2504 96.9295 68.9063 97.1277C68.4266 97.3394 67.8625 97.3506 67.36 97.5224C66.8179 97.708 66.5327 98.0265 66.7885 98.6994C66.8897 99.0839 66.8402 99.4926 66.6499 99.8418C66.1465 100.778 65.4719 101.629 65.0257 102.588C64.7814 103.113 64.7916 103.723 63.9175 103.581L63.9476 103.889L72.7026 105.502ZM85.5831 54.5912C85.1135 53.3556 84.7155 52.3084 84.3218 51.271C82.5814 51.5898 82.066 51.4567 81.5388 50.4884H83.9213C83.6194 49.905 83.3938 49.4686 83.2166 49.1267C82.8954 49.3547 82.6745 49.6187 82.4096 49.682C80.9287 50.0337 79.4366 50.3373 77.9479 50.6564C77.8111 50.6955 77.6709 50.7213 77.5291 50.7333C75.5339 50.7624 74.4352 52.224 74.0056 53.8327C73.9666 53.9777 74.3105 54.391 74.5006 54.4059C77.1219 54.616 79.7452 54.827 82.3723 54.9273C83.3758 54.9666 84.3919 54.7254 85.5831 54.5912ZM64.3023 104.956C66.1461 108.446 73.6532 113.398 76.6137 113.036C76.2934 112.664 76.0028 112.268 75.7447 111.851C74.9688 110.345 74.1994 108.833 73.5049 107.288C73.4196 107.021 73.2562 106.786 73.0358 106.613C72.8153 106.441 72.5481 106.338 72.2686 106.319C70.8615 106.153 69.4592 105.938 68.0624 105.699C66.8159 105.484 65.5803 105.21 64.302 104.956H64.3023ZM104.732 102.948L104.597 102.711C104.495 102.737 104.396 102.76 104.297 102.79C101.969 103.49 99.6515 104.229 97.306 104.866C96.6917 105.024 96.1355 105.354 95.7035 105.819C94.2602 107.307 92.8372 108.824 91.2889 110.198C90.2725 111.099 89.0551 111.773 87.9276 112.549C94.5464 111.089 100.068 107.752 104.732 102.948H104.732ZM82.645 113.061C86.0798 113.068 92.4405 108.947 94.4597 105.621C92.1745 105.91 89.8137 106.181 87.4631 106.523C86.8736 106.609 86.0829 106.421 85.8047 107.254C85.1165 109.367 84.0453 111.336 82.6447 113.061H82.645ZM84.108 48.5328L86.6016 54.3365L87.0982 54.2348C87.3825 53.8178 87.5804 53.2794 87.7843 53.277C88.2756 53.2709 88.7699 53.5159 89.2628 53.6595C89.2462 53.7375 89.2289 53.8154 89.2127 53.8933L91.3498 53.3217C91.1632 52.222 91.9875 52.2223 92.7833 52.1C91.0972 50.4127 89.1435 49.016 87.0013 47.9667C85.7945 47.3826 84.9241 47.5669 84.1076 48.5328H84.108ZM54.5174 101.829C58.0911 106.338 67.8066 112.473 70.6823 112.165C69.629 111.378 68.5164 110.551 67.4085 109.717C67.0223 109.426 66.6892 109.022 66.2596 108.841C65.2578 108.419 64.0544 108.31 63.2243 107.689C62.2123 106.929 61.5032 105.768 60.6535 104.789C60.29 104.37 59.9776 103.788 59.5114 103.597C57.9231 102.947 56.2768 102.438 54.5171 101.829H54.5174ZM67.5613 52.6109L72.9289 54.1667C73.0942 53.5596 73.2277 53.068 73.3666 52.5574C72.1469 52.4067 71.9918 52.3202 71.9383 51.6474C71.878 50.8936 71.7817 50.0787 72.8794 50.0733V48.6968C72.1626 48.6063 71.4345 48.6829 70.7522 48.9208C70.0699 49.1586 69.4519 49.5511 68.9466 50.0676C68.8989 50.1618 68.8741 50.266 68.8741 50.3716C68.8741 50.4773 68.8989 50.5815 68.9466 50.6757C69.0354 50.8451 69.276 50.9376 69.673 51.2246L67.7283 51.9001C67.7192 51.9327 67.6606 52.179 67.5589 52.6109H67.5613ZM63.7305 81.3792C63.7551 81.6743 63.8152 81.9654 63.9094 82.2462C64.2221 82.856 64.446 83.7627 64.9488 83.9741C66.5388 84.6432 67.9089 85.9452 69.8448 85.7639C69.7692 84.7814 69.6893 83.7359 69.6076 82.6788L63.7305 81.3792ZM95.8092 63.3479C95.6198 63.0812 95.4802 62.8851 95.2922 62.6198L96.7652 62.509C96.4876 62.1539 96.1903 61.8146 95.8749 61.4926C95.3152 60.9908 94.723 60.5236 94.1419 60.0473C94.0135 59.9426 93.8576 59.7701 93.7299 59.783C92.9971 59.8569 92.269 59.9775 91.7788 60.048C91.3594 60.4288 91.0534 60.6917 90.7661 60.9729C90.5273 61.2063 90.1352 61.4472 90.1146 61.7108C90.0295 62.8065 89.3353 63.0623 88.3867 63.2015C88.4826 63.2949 88.5962 63.3682 88.7208 63.417C88.8454 63.4658 88.9786 63.4892 89.1124 63.4858C89.4959 63.4153 89.8507 63.1378 90.2304 63.107C91.4823 63.0054 92.7406 62.9315 93.9959 62.943C94.458 62.9474 94.9174 63.2205 95.3782 63.3709L95.3324 63.5996L95.8092 63.3479ZM88.0259 47.0685C89.746 48.4322 91.4234 49.7826 93.1299 51.0955C93.4165 51.3164 93.6991 51.5986 94.2381 51.231C94.6582 50.9434 95.3792 51.0901 95.966 51.0515C96.3519 51.026 96.7388 51.0145 97.125 50.9969C94.3505 49.1551 91.2689 47.8243 88.0259 47.0675V47.0685ZM98.8245 63.2354L95.1078 64.738L95.0787 64.9751C95.5097 65.0985 95.9457 65.2069 96.3695 65.3505C96.6264 65.4349 96.871 65.5525 97.0973 65.7005C97.6502 66.0732 98.1848 66.4699 98.8672 66.9578C98.7283 65.605 98.9586 65.3458 100.968 66.1725L100.133 63.7944C99.2873 64.4876 99.1941 63.5545 98.8245 63.2344V63.2354ZM90.5276 55.7455C90.017 57.0624 88.7499 56.0765 87.9317 56.7423C87.8849 56.1213 87.8528 55.692 87.8175 55.2201C86.9095 55.6944 86.9143 56.3025 87.2033 57.0259C87.3267 57.4019 87.4174 57.7878 87.4743 58.1795C87.7165 59.3405 87.6616 59.6468 89.1971 59.3409C89.7053 57.9681 88.1654 57.8946 87.6566 57.1011C89.1053 56.8856 90.4398 56.7179 91.5016 55.7584C91.6798 55.6151 91.892 55.5202 92.1176 55.483C92.2178 55.4786 92.3157 55.4519 92.4043 55.4049C92.4929 55.3579 92.5699 55.2917 92.6297 55.2112C92.6895 55.1307 92.7306 55.0378 92.75 54.9394C92.7695 54.8411 92.7667 54.7396 92.742 54.6424C92.7434 54.535 92.7599 54.4284 92.7911 54.3256L93.527 54.1796L93.4789 53.9319C92.1667 53.7625 91.0267 54.5079 89.6349 54.7857L90.5276 55.7455ZM64.0933 52.0695C63.9399 52.1397 63.7903 52.2182 63.6454 52.3047C63.0197 52.7451 62.4369 53.4806 61.7664 53.5701C60.5129 53.7371 59.6916 54.5726 58.6833 55.1008C58.2941 55.3041 58.042 55.7692 57.5867 56.2697L59.4806 56.5854C59.4633 56.7941 59.4436 57.034 59.4334 57.1566C59.9105 56.7328 60.4245 56.3215 60.8815 55.855C61.1976 55.5328 61.3714 55.0483 61.7217 54.7884C62.3946 54.2887 62.6158 53.2357 63.6756 53.2062C63.7977 53.2013 63.9138 53.152 64.0022 53.0676C64.0394 52.6516 64.0591 52.4405 64.0933 52.0685V52.0695ZM101.343 64.1468C101.614 65.0398 101.788 65.7493 102.058 66.4198C102.144 66.6322 102.566 66.9229 102.702 66.8657C103.457 66.5492 103.842 67.0201 104.26 67.5287C104.391 66.9404 104.469 66.3418 104.496 65.7398C104.48 65.3133 104.524 64.5879 103.649 64.9128C103.547 64.9511 103.388 64.8528 103.258 64.8084C102.677 64.6086 102.097 64.4053 101.343 64.1458V64.1468ZM70.9469 47.5154C69.4091 47.5737 64.5097 49.6718 63.1782 50.8356C64.6635 50.4524 66.075 50.2539 67.3411 49.7145C68.5804 49.1857 69.6734 48.3099 70.9469 47.5154ZM104.847 68.7731L104.61 68.8791C105.549 71.0969 106.489 73.3144 107.446 75.5722L108.081 75.1995L104.847 68.7731ZM97.5506 54.533C97.2118 54.2782 96.7689 54.0868 96.5765 53.7514C96.4261 53.4891 96.5874 53.0483 96.6121 52.6574L95.612 53.1269C96.0267 53.9492 96.4132 54.7159 96.8055 55.4945C97.1223 55.0835 97.3215 54.8267 97.5489 54.533H97.5506ZM92.7227 81.0519C91.9434 80.2215 90.4222 80.4895 89.461 81.6814L92.7227 81.0519ZM77.9733 46.9431H81.1919C80.3276 45.9847 79.0443 46.0223 77.9716 46.9431H77.9733ZM97.8169 61.664L98.0069 61.4204L95.5622 59.4507C95.8708 60.6734 96.9059 61.0996 97.8138 61.664H97.8169ZM76.7096 46.7842L76.6113 46.4929L73.6851 47.3226C73.7038 47.3934 73.722 47.4642 73.7407 47.535C74.7076 47.1989 75.8395 47.5293 76.7065 46.7842H76.7096ZM65.3747 108.301L64.0114 106.676C63.9443 107.402 64.6791 108.113 65.372 108.301H65.3747ZM113.155 72.3298L112.823 71.967L111.231 71.4666L112.184 72.7814L113.155 72.3298Z" fill="#007BB0"/>
</svg>
