<svg width="164" height="164" viewBox="0 0 164 164" fill="none" xmlns="http://www.w3.org/2000/svg">
<path d="M88.6294 19.0441C88.5205 19.0399 88.4129 19.07 88.322 19.1302C88.2311 19.1904 88.1614 19.2776 88.1227 19.3795L88.1212 19.3834C87.8484 20.1711 87.4253 20.8985 86.8754 21.5251C86.3053 22.1752 85.6099 22.7037 84.8309 23.0788C83.9551 23.5054 82.9936 23.7267 82.0195 23.7258C80.8215 23.7257 79.6469 23.3934 78.6264 22.7659C77.5751 22.1199 76.7313 21.1857 76.1952 20.0743C76.0898 19.8567 75.9966 19.6334 75.9161 19.4054C75.8737 19.2964 75.7983 19.2033 75.7004 19.1391C75.6026 19.075 75.4872 19.0429 75.3703 19.0474C70.7212 19.4351 66.1888 20.7062 62.0161 22.7925L59.21 24.1956C59.21 25.9046 60.8524 25.866 62.4924 25.3845L72.1284 23.3C72.7304 23.2453 73.3322 23.4077 73.8251 23.7577C74.318 24.1078 74.6695 24.6226 74.8161 25.2091L77.7106 40.1612H86.3226L89.2171 25.2091C89.3637 24.6225 89.7152 24.1078 90.2081 23.7577C90.701 23.4076 91.3028 23.2452 91.9049 23.3L101.541 25.3845C103.181 25.866 104.823 25.9046 104.823 24.1956L102.018 22.793C97.8448 20.7064 93.3116 19.4352 88.6618 19.0477L88.6294 19.0441Z" fill="#EB004B"/>
<path d="M82.0161 21.9147C85.165 21.9147 87.7177 19.362 87.7177 16.2131C87.7177 13.0642 85.165 10.5115 82.0161 10.5115C78.8671 10.5115 76.3145 13.0642 76.3145 16.2131C76.3145 19.362 78.8671 21.9147 82.0161 21.9147Z" fill="#EB004B"/>
<path d="M124.011 47.0519C123.96 46.9555 123.88 46.8776 123.783 46.8291C123.685 46.7807 123.575 46.764 123.467 46.7816H123.463C122.645 46.9407 121.803 46.9394 120.985 46.7778C120.137 46.6109 119.331 46.2745 118.615 45.7887C117.807 45.2448 117.133 44.5237 116.645 43.6803C116.045 42.6439 115.743 41.4611 115.774 40.2635C115.805 39.0299 116.19 37.8313 116.882 36.81C117.018 36.6097 117.164 36.4171 117.321 36.233C117.394 36.1416 117.437 36.0297 117.443 35.9129C117.449 35.7961 117.419 35.6802 117.357 35.5813V35.5813C114.689 31.7542 111.315 28.4711 107.417 25.9082L104.795 24.1848C103.317 25.0423 104.174 26.4437 105.414 27.6206L112.052 34.9097C112.401 35.4031 112.563 36.005 112.507 36.6069C112.452 37.2088 112.183 37.7711 111.749 38.1922L100.268 48.1978L104.588 55.6473L118.974 50.6496C119.555 50.4821 120.177 50.5279 120.727 50.7786C121.277 51.0294 121.72 51.4686 121.974 52.017L125.005 61.3985C125.411 63.0586 126.202 64.4988 127.68 63.6413L127.486 60.5113C127.197 55.8543 126.022 51.2951 124.025 47.0785L124.011 47.0519Z" fill="#FF8A00"/>
<path d="M123.142 45.6125C126.291 45.6125 128.844 43.0597 128.844 39.9108C128.844 36.7619 126.291 34.2092 123.142 34.2092C119.993 34.2092 117.44 36.7619 117.44 39.9108C117.44 43.0597 119.993 45.6125 123.142 45.6125Z" fill="#FF8A00"/>
<path d="M88.6336 108.249C88.5246 108.253 88.417 108.223 88.326 108.163C88.2351 108.102 88.1653 108.015 88.1266 107.913L88.1254 107.91C87.8526 107.122 87.4295 106.394 86.8795 105.768C86.3096 105.118 85.6142 104.589 84.8351 104.214C83.9594 103.788 82.9979 103.566 82.0239 103.567C80.8258 103.567 79.6512 103.9 78.6305 104.527C77.5792 105.173 76.7354 106.107 76.1994 107.219C76.094 107.437 76.0008 107.66 75.9203 107.888C75.8779 107.997 75.8025 108.09 75.7046 108.154C75.6068 108.218 75.4914 108.25 75.3744 108.246V108.246C70.7253 107.858 66.1927 106.587 62.02 104.501L59.2139 103.098C59.2139 101.389 60.8565 101.427 62.4963 101.909L72.1323 103.994C72.7344 104.048 73.3362 103.886 73.8291 103.536C74.322 103.186 74.6734 102.671 74.82 102.084L77.7146 87.1338H86.3265L89.2211 102.084C89.3677 102.671 89.7192 103.186 90.2121 103.536C90.7049 103.886 91.3067 104.048 91.9088 103.994L101.545 101.909C103.185 101.427 104.827 101.389 104.827 103.098L102.022 104.5C97.8487 106.587 93.3155 107.858 88.6657 108.246L88.6336 108.249Z" fill="#EB004B"/>
<path d="M82.02 116.781C85.1689 116.781 87.7216 114.229 87.7216 111.08C87.7216 107.931 85.1689 105.378 82.02 105.378C78.8711 105.378 76.3184 107.931 76.3184 111.08C76.3184 114.229 78.8711 116.781 82.02 116.781Z" fill="#EB004B"/>
<path d="M124.015 80.2403C123.964 80.3367 123.884 80.4146 123.786 80.4631C123.689 80.5116 123.578 80.5283 123.471 80.5108H123.467C122.648 80.3517 121.807 80.3531 120.989 80.5149C120.14 80.6817 119.334 81.018 118.619 81.5037C117.811 82.0476 117.137 82.7687 116.649 83.6121C116.048 84.6485 115.746 85.8313 115.777 87.029C115.808 88.2625 116.193 89.4612 116.886 90.4825C117.021 90.6829 117.168 90.8755 117.325 91.0596C117.398 91.151 117.44 91.263 117.447 91.3798C117.453 91.4966 117.423 91.6125 117.36 91.7113V91.7113C114.692 95.5384 111.319 98.8214 107.421 101.384L104.799 103.108C103.321 102.25 104.178 100.849 105.417 99.6718L112.056 92.3827C112.405 91.8893 112.567 91.2874 112.511 90.6855C112.456 90.0836 112.187 89.5213 111.753 89.1002L101.016 79.8392L105.336 72.3898L118.978 76.643C119.559 76.8104 120.181 76.7646 120.731 76.5138C121.281 76.2631 121.723 75.824 121.978 75.2757L125.009 65.8939C125.415 64.2338 126.205 62.7936 127.684 63.6511L127.49 66.7814C127.201 71.4383 126.026 75.9974 124.028 80.214L124.015 80.2403Z" fill="#4CD700"/>
<path d="M123.146 93.0829C126.295 93.0829 128.848 90.5302 128.848 87.3813C128.848 84.2324 126.295 81.6797 123.146 81.6797C119.997 81.6797 117.444 84.2324 117.444 87.3813C117.444 90.5302 119.997 93.0829 123.146 93.0829Z" fill="#4CD700"/>
<path d="M39.9897 47.0318C40.0407 46.9355 40.1206 46.8575 40.2182 46.809C40.3158 46.7604 40.4262 46.7438 40.5338 46.7613H40.5377C41.3562 46.9205 42.1978 46.9192 43.0158 46.7575C43.8642 46.5907 44.6703 46.2543 45.3856 45.7685C46.1939 45.2245 46.8675 44.5034 47.3553 43.66C47.9562 42.6235 48.2581 41.4407 48.2272 40.243C48.1959 39.0095 47.8112 37.8109 47.1186 36.7897C46.9832 36.5894 46.8368 36.3967 46.6801 36.2125C46.6071 36.1211 46.5644 36.0092 46.558 35.8924C46.5516 35.7756 46.5818 35.6596 46.6444 35.5608V35.5608C49.3123 31.7336 52.6859 28.4506 56.5842 25.8877L59.2056 24.1643C60.6841 25.0218 59.8266 26.4232 58.5872 27.6003L51.9488 34.8895C51.5995 35.3828 51.4381 35.9848 51.4937 36.5867C51.5493 37.1886 51.8182 37.7508 52.2519 38.1719L63.7334 48.1773L59.4128 55.6268L45.0262 50.6305C44.4453 50.4632 43.8236 50.509 43.2735 50.7598C42.7234 51.0105 42.281 51.4496 42.0262 51.9979L38.9956 61.3797C38.5895 63.0398 37.7988 64.48 36.3203 63.6225L36.5146 60.4922C36.8033 55.8352 37.9781 51.276 39.9758 47.0594L39.9897 47.0318Z" fill="#4CD700"/>
<path d="M40.8588 45.5927C44.0077 45.5927 46.5604 43.04 46.5604 39.8911C46.5604 36.7421 44.0077 34.1895 40.8588 34.1895C37.7099 34.1895 35.1572 36.7421 35.1572 39.8911C35.1572 43.04 37.7099 45.5927 40.8588 45.5927Z" fill="#4CD700"/>
<path d="M39.9846 80.2193C40.0356 80.3156 40.1155 80.3936 40.2131 80.442C40.3107 80.4905 40.4211 80.5072 40.5287 80.4896H40.5325C41.351 80.3304 42.1926 80.3317 43.0106 80.4934C43.8591 80.6603 44.6651 80.9967 45.3805 81.4824C46.1888 82.0264 46.8624 82.7475 47.3502 83.5909C47.9511 84.6274 48.2529 85.8102 48.2221 87.008C48.1908 88.2414 47.806 89.44 47.1134 90.4612C46.978 90.6616 46.8316 90.8543 46.6748 91.0384C46.6018 91.1298 46.5591 91.2417 46.5527 91.3585C46.5463 91.4753 46.5765 91.5912 46.639 91.6901C49.3069 95.5172 52.6804 98.8003 56.5786 101.363L59.2002 103.087C60.6788 102.229 59.8213 100.828 58.5818 99.6508L51.9434 92.3614C51.5941 91.8681 51.4327 91.2662 51.4882 90.6643C51.5437 90.0623 51.8126 89.5001 52.2462 89.079L63.7281 79.0733L59.4075 71.6239L45.0213 76.6216C44.4404 76.789 43.8187 76.7432 43.2686 76.4925C42.7184 76.2417 42.2761 75.8025 42.0214 75.2542L38.9907 65.8727C38.5846 64.2123 37.794 62.7721 36.3154 63.6296L36.5095 66.7599C36.7984 71.4169 37.9732 75.976 39.9709 80.1927L39.9846 80.2193Z" fill="#FF8A00"/>
<path d="M40.854 93.0629C44.0029 93.0629 46.5556 90.5102 46.5556 87.3613C46.5556 84.2124 44.0029 81.6597 40.854 81.6597C37.705 81.6597 35.1523 84.2124 35.1523 87.3613C35.1523 90.5102 37.705 93.0629 40.854 93.0629Z" fill="#FF8A00"/>
<path d="M64.1237 90.469L64.3611 90.6178L62.5771 93.4673L64.4769 94.6566L66.2609 91.8071L66.4983 91.9559C66.5295 91.9754 66.5643 91.9886 66.6005 91.9948C66.6368 92.0009 66.674 91.9998 66.7098 91.9915C66.7457 91.9833 66.7796 91.968 66.8096 91.9466C66.8396 91.9253 66.865 91.8982 66.8845 91.867L70.4526 86.168C70.5706 85.979 70.6089 85.7509 70.559 85.5338C70.5091 85.3166 70.3751 85.1281 70.1864 85.0096L68.7615 84.1176C68.5725 83.9995 68.3444 83.9612 68.1272 84.0112C67.91 84.0611 67.7215 84.1952 67.6031 84.384L64.0351 90.083C64.0155 90.1141 64.0023 90.1489 63.9962 90.1851C63.99 90.2214 63.9911 90.2585 63.9994 90.2944C64.0076 90.3302 64.0228 90.3641 64.0442 90.394C64.0655 90.424 64.0925 90.4495 64.1237 90.469V90.469Z" fill="#00A9D3"/>
<path d="M59.3658 98.069L61.7404 99.5556C61.7715 99.5752 61.8063 99.5884 61.8426 99.5945C61.8788 99.6006 61.916 99.5995 61.9518 99.5912C61.9877 99.583 62.0215 99.5677 62.0515 99.5464C62.0814 99.525 62.1069 99.498 62.1264 99.4668L62.2752 99.2293L63.2654 99.8494C63.2279 100.019 63.2437 100.196 63.3107 100.357C63.3778 100.517 63.4927 100.653 63.6399 100.745L65.0647 101.637C65.0959 101.657 65.1307 101.67 65.167 101.676C65.2033 101.682 65.2404 101.681 65.2763 101.673C65.3121 101.664 65.346 101.649 65.376 101.628C65.406 101.606 65.4315 101.579 65.451 101.548L67.235 98.6986C67.2545 98.6675 67.2677 98.6327 67.2738 98.5965C67.2799 98.5602 67.2788 98.5231 67.2706 98.4872C67.2623 98.4514 67.2471 98.4175 67.2257 98.3875C67.2044 98.3576 67.1773 98.3321 67.1461 98.3126L65.7215 97.4206C65.5741 97.3285 65.4018 97.2843 65.2283 97.294C65.0548 97.3037 64.8885 97.3668 64.7523 97.4748L63.7618 96.8547L64.5046 95.6675C64.5241 95.6363 64.5373 95.6016 64.5434 95.5653C64.5495 95.529 64.5484 95.4919 64.5402 95.456C64.5319 95.4201 64.5167 95.3862 64.4953 95.3563C64.474 95.3263 64.4469 95.3008 64.4157 95.2813L62.0411 93.7946C62.0099 93.7751 61.9752 93.7619 61.9389 93.7557C61.9026 93.7496 61.8655 93.7507 61.8296 93.7589C61.7937 93.7671 61.7598 93.7824 61.7298 93.8037C61.6999 93.825 61.6744 93.8521 61.6549 93.8833L60.6162 95.5425C58.7634 94.3107 58.037 92.9096 58.1949 90.903C58.1988 90.8519 58.1887 90.8007 58.1657 90.755C58.1426 90.7093 58.1074 90.6707 58.064 90.6435C58.045 90.6317 58.0247 90.6221 58.0034 90.615C57.9439 90.5953 57.8795 90.5962 57.8205 90.6175C57.7615 90.6387 57.7113 90.6792 57.6781 90.7324C56.9305 91.9295 56.6884 93.3743 57.0048 94.7497C57.3212 96.1251 58.1703 97.3188 59.3658 98.069V98.069Z" fill="#74CCE5"/>
<path d="M56.7832 35.4311L62.0586 42.7256C63.8926 40.9964 66.1757 39.8175 68.6474 39.3233C69.8911 37.131 71.7258 35.3324 73.9424 34.1325L68.6659 26.8376" fill="#74CCE5"/>
<path d="M62.0184 43.1492L56.5557 35.5953L57.0109 35.2666L62.1013 42.3044C63.9035 40.6885 66.0985 39.5742 68.4666 39.073C69.6841 36.9808 71.4298 35.2452 73.529 34.0396L68.4388 27.0016L68.894 26.6726L74.3567 34.2263L74.0755 34.3784C71.9076 35.5571 70.1118 37.3177 68.8904 39.4619L68.8274 39.5718L68.7033 39.5972C66.2846 40.0857 64.0503 41.2398 62.252 42.9295L62.0184 43.1492Z" fill="#00A9D3"/>
<path d="M63.0195 30.9347L68.4164 38.3969C69.2911 36.6548 70.6657 35.078 72.5134 33.7008L67.0766 26.1831C65.2111 27.5732 63.8492 29.1696 63.0195 30.9347Z" fill="#74CCE5"/>
<path d="M62.4413 31.3523C60.5063 31.5878 58.5637 32.3814 56.6592 33.7173L62.096 41.235C63.9816 39.9113 65.9096 39.0996 67.8381 38.8152L62.4413 31.3523Z" fill="#00A9D3"/>
<path d="M117.578 68.8253L113.912 68.6609C113.996 69.0748 114.215 69.449 114.535 69.7238C114.856 69.9987 115.259 70.1585 115.681 70.1778C116.103 70.1961 116.518 70.073 116.862 69.8279C117.206 69.5829 117.458 69.2299 117.578 68.8253V68.8253Z" fill="#74CCE5"/>
<path d="M119.011 58.2109L119.093 56.3713C119.108 56.0565 118.996 55.7491 118.783 55.5165C118.571 55.284 118.274 55.1454 117.96 55.1312L115.23 55.009C114.915 54.9949 114.608 55.1064 114.375 55.319C114.142 55.5315 114.004 55.8278 113.99 56.1425L113.907 57.9824L119.011 58.2109Z" fill="#74CCE5"/>
<path d="M112.896 59.7238L113.003 57.3518L108.789 58.1937C108.489 58.2537 108.226 58.4302 108.056 58.6845C107.886 58.9388 107.825 59.2501 107.885 59.5498C107.914 59.6983 107.973 59.8394 108.057 59.9651C108.141 60.0909 108.249 60.1989 108.375 60.2828C108.501 60.3668 108.643 60.4251 108.791 60.4545C108.939 60.4839 109.092 60.4837 109.241 60.4541L112.896 59.7238Z" fill="#74CCE5"/>
<path d="M112.152 67.8937L119.881 68.2402L120.954 68.2881C121.162 68.2972 121.553 68.0725 120.982 67.6652C120.56 67.3645 119.323 65.8541 118.738 64.3034L118.95 59.5767L113.847 59.3479L113.634 64.0935C112.911 65.579 111.554 66.9619 111.108 67.2226C110.502 67.5775 110.872 67.837 111.08 67.8456L112.152 67.8937Z" fill="#00A9D3"/>
<path d="M115.885 73.922C115.975 73.9259 116.063 73.8938 116.13 73.8327C116.197 73.7716 116.236 73.6866 116.241 73.5962L116.314 71.9521C116.318 71.8617 116.286 71.7734 116.225 71.7066C116.164 71.6399 116.079 71.6001 115.989 71.5961C115.91 71.5925 115.832 71.6166 115.768 71.6642C115.705 71.7119 115.66 71.7801 115.642 71.8572C115.637 71.8783 115.633 71.8999 115.632 71.9217L115.559 73.5658C115.557 73.6105 115.564 73.6553 115.579 73.6974C115.594 73.7396 115.618 73.7783 115.648 73.8114C115.678 73.8444 115.715 73.8713 115.755 73.8902C115.796 73.9092 115.84 73.92 115.885 73.922Z" fill="#74CCE5"/>
<path d="M120.108 72.39C120.141 72.3598 120.168 72.3234 120.187 72.2828C120.206 72.2422 120.216 72.1983 120.218 72.1535C120.22 72.1088 120.214 72.064 120.198 72.0219C120.183 71.9798 120.16 71.9411 120.129 71.908L119.019 70.6932C118.989 70.6602 118.952 70.6334 118.912 70.6144C118.871 70.5954 118.827 70.5846 118.782 70.5826C118.738 70.5806 118.693 70.5874 118.651 70.6027C118.609 70.618 118.57 70.6414 118.537 70.6717C118.486 70.7175 118.451 70.7776 118.435 70.8439C118.422 70.8982 118.423 70.9548 118.437 71.0088C118.451 71.0629 118.478 71.1126 118.515 71.1537L119.626 72.3685C119.656 72.4016 119.692 72.4284 119.733 72.4474C119.773 72.4664 119.817 72.4772 119.862 72.4792C119.907 72.4812 119.952 72.4744 119.994 72.4591C120.036 72.4438 120.075 72.4203 120.108 72.39V72.39Z" fill="#74CCE5"/>
<path d="M112.296 72.0401L113.511 70.9296C113.578 70.8685 113.617 70.7834 113.621 70.693C113.625 70.6026 113.593 70.5143 113.532 70.4475C113.502 70.4144 113.466 70.3876 113.425 70.3686C113.385 70.3496 113.341 70.3388 113.296 70.3368C113.251 70.3348 113.206 70.3416 113.164 70.3569C113.122 70.3722 113.083 70.3957 113.05 70.4259L111.836 71.5362C111.785 71.5821 111.75 71.6422 111.734 71.7085C111.721 71.7628 111.721 71.8194 111.735 71.8735C111.749 71.9275 111.776 71.9774 111.814 72.0185C111.844 72.0516 111.881 72.0784 111.921 72.0974C111.962 72.1164 112.006 72.1271 112.051 72.1291C112.095 72.1311 112.14 72.1243 112.182 72.109C112.224 72.0938 112.263 72.0703 112.296 72.0401V72.0401Z" fill="#74CCE5"/>
<path d="M96.8513 97.8108C96.3036 96.8831 96.0719 95.8026 96.1912 94.7318V94.7318C96.1927 94.7191 96.1944 94.7067 96.196 94.6942C96.2329 94.3794 96.4629 92.1013 95.5542 90.5564L95.334 90.1824L99.529 87.7146L99.7492 88.0886C100.658 89.6335 102.761 90.5392 103.054 90.6597C103.066 90.6642 103.078 90.6688 103.089 90.6738C104.083 91.0895 104.915 91.8168 105.46 92.7463C105.792 93.3116 106.01 93.9369 106.101 94.5864C106.192 95.2359 106.154 95.897 105.989 96.5318C105.825 97.1667 105.537 97.7629 105.141 98.2864C104.746 98.8099 104.252 99.2504 103.687 99.5829C102.545 100.254 101.184 100.445 99.9021 100.112C98.6203 99.7799 97.5229 98.9521 96.8513 97.8108V97.8108Z" fill="#74CCE5"/>
<path d="M45.8802 59.9637L50.5207 64.2525C55.9547 56.6573 41.6797 55.4668 41.6797 55.4668C43.0674 70.1498 49.4696 65.0819 49.4696 65.0819L45.8802 59.9637ZM48.8821 70.191L51.1168 66.691C45.5724 64.0593 46.4617 73.4301 46.4617 73.4301C55.7975 70.8257 51.7757 67.2742 51.7757 67.2742L48.8821 70.191ZM57.0942 66.289C53.5358 68.8047 50.5928 65.442 50.5928 65.442C54.9482 67.4814 56.7218 64.8021 56.7218 64.8021L57.0942 66.289Z" fill="#74CCE5"/>
<path d="M104.521 31.2463C105.409 31.7875 106.047 32.6586 106.294 33.6689C106.542 34.6792 106.379 35.7465 105.842 36.6372C105.842 36.6372 104.047 40.2284 95.1307 40.8466C91.5579 32.6601 93.9104 29.4058 93.9104 29.4058C94.4517 28.5174 95.3228 27.8797 96.3331 27.6321C97.3434 27.3845 98.4107 27.5472 99.3013 28.0846C99.8008 28.3884 100.226 28.7998 100.546 29.289C100.866 29.7781 101.073 30.3325 101.152 30.9118C101.703 30.7123 102.291 30.6387 102.874 30.6966C103.457 30.7545 104.02 30.9423 104.521 31.2463V31.2463ZM105.096 36.1865C105.514 35.494 105.641 34.6639 105.449 33.878C105.256 33.0921 104.76 32.4145 104.069 31.9936C103.68 31.7569 103.242 31.611 102.789 31.5668C102.335 31.5225 101.877 31.581 101.449 31.7379L100.431 32.1007L100.287 31.0316C100.228 30.5809 100.069 30.1492 99.8203 29.7685C99.5719 29.3878 99.241 29.068 98.8521 28.8326C98.1596 28.4141 97.3295 28.2872 96.5436 28.4795C95.7577 28.6718 95.0801 29.1678 94.6592 29.8588L94.6326 29.8988L94.6218 29.9146C94.5688 29.9944 94.1268 30.7532 94.0381 32.3106C93.9935 33.4134 94.0893 34.5174 94.323 35.5961C94.6398 37.0827 95.0971 38.5358 95.6887 39.9359C97.2039 39.8089 98.7041 39.5432 100.171 39.1421C101.233 38.8472 102.254 38.4199 103.21 37.8703C104.561 37.0612 105.02 36.3202 105.067 36.2411L105.087 36.2025L105.096 36.1865Z" fill="#74CCE5"/>
<path d="M104.07 31.9931C104.761 32.414 105.257 33.0916 105.449 33.8775C105.641 34.6634 105.514 35.4936 105.096 36.186L105.085 36.2018L105.065 36.2404C105.019 36.3187 104.56 37.0598 103.209 37.8696C102.253 38.4192 101.232 38.8465 100.17 39.1414C98.703 39.5425 97.2027 39.8082 95.6875 39.9352C95.096 38.5351 94.6387 37.082 94.3219 35.5954C94.0881 34.5167 93.9924 33.4127 94.037 32.3099C94.1257 30.7525 94.5677 29.9937 94.6206 29.9139L94.6314 29.8981L94.658 29.8581C95.0789 29.1671 95.7566 28.6711 96.5425 28.4788C97.3284 28.2864 98.1584 28.4134 98.8509 28.8319C99.2398 29.0672 99.5707 29.3871 99.8192 29.7678C100.068 30.1484 100.227 30.5802 100.286 31.0309L100.43 32.1L101.448 31.7372C101.876 31.5801 102.334 31.5215 102.788 31.5658C103.242 31.6101 103.68 31.7562 104.07 31.9931V31.9931ZM98.4728 29.8749C98.4875 29.8506 98.4972 29.8237 98.5015 29.7957C98.5057 29.7677 98.5044 29.7392 98.4976 29.7117C98.4909 29.6842 98.4787 29.6583 98.4619 29.6355C98.4451 29.6126 98.424 29.5934 98.3998 29.5787C97.8801 29.2649 97.2574 29.1695 96.6676 29.3134C96.0779 29.4574 95.5691 29.8289 95.2525 30.3469C95.2228 30.3971 95.2141 30.4569 95.228 30.5135C95.2419 30.5701 95.2774 30.619 95.327 30.6497C95.3772 30.6793 95.437 30.6881 95.4936 30.6742C95.5502 30.6603 95.5991 30.6247 95.6298 30.5752C95.8839 30.1558 96.294 29.8543 96.7702 29.7369C97.2463 29.6195 97.7496 29.6958 98.1695 29.9491C98.2197 29.979 98.2796 29.988 98.3364 29.9741C98.3931 29.9602 98.4421 29.9246 98.4728 29.8749V29.8749Z" fill="#74CCE5"/>
<path d="M98.3992 29.579C98.4234 29.5936 98.4445 29.6129 98.4613 29.6357C98.4781 29.6585 98.4903 29.6844 98.4971 29.7119C98.5039 29.7394 98.5052 29.768 98.5009 29.796C98.4967 29.824 98.4869 29.8509 98.4723 29.8751C98.4416 29.9247 98.3927 29.9602 98.3361 29.9741C98.2796 29.9879 98.2198 29.9791 98.1697 29.9494C97.7497 29.6961 97.2465 29.6198 96.7703 29.7372C96.2942 29.8545 95.8841 30.156 95.63 30.5755C95.5992 30.625 95.5503 30.6605 95.4937 30.6745C95.4371 30.6884 95.3773 30.6796 95.3271 30.65C95.2776 30.6193 95.2421 30.5703 95.2281 30.5137C95.2142 30.4571 95.223 30.3973 95.2526 30.3471C95.5692 29.8294 96.0779 29.458 96.6675 29.3141C97.257 29.1701 97.8796 29.2654 98.3992 29.579Z" fill="#00A9D3"/>
<path d="M95.4854 40.2324C95.4854 40.2324 100.349 39.9689 103.594 37.3829C107.637 34.1604 104.116 32.4365 104.116 32.4365C104.116 32.4365 103.291 36.8721 95.4854 40.2324Z" fill="#00A9D3"/>
<path d="M99.2758 87.2126L98.2367 85.4463C98.1045 85.2221 97.8888 85.0594 97.6368 84.9941C97.3848 84.9288 97.1172 84.9661 96.8928 85.098L96.5722 85.2865L96.0008 85.0488L94.7803 85.7676L94.7103 86.3824L94.3897 86.5712C94.1655 86.7034 94.0029 86.9192 93.9376 87.1711C93.8724 87.4231 93.9098 87.6907 94.0416 87.9151L95.0807 89.6814L99.2758 87.2126Z" fill="#00A9D3"/>
<path d="M51.4463 66.0384C51.4463 66.0384 54.3293 68.0886 56.9433 66.2948L56.6869 65.1543C56.6869 65.1543 55.136 67.5761 51.4463 66.0384Z" fill="#00A9D3"/>
<path d="M96.7628 93.9937C96.7628 93.9937 96.3967 98.3157 100.119 99.6145C103.842 100.913 105.336 96.8867 105.336 96.8867C105.336 96.8867 103.192 99.6145 101.179 98.965C101.179 98.965 98.4448 98.3066 96.7628 93.9937Z" fill="#00A9D3"/>
<path d="M57.0377 63.5585C56.9402 49.6925 68.2028 38.3578 82.3233 38.4929C89.1344 38.5581 95.0404 41.0664 99.8656 45.9383C104.691 50.8102 107.09 56.755 107.109 63.5434C107.127 69.9432 104.969 75.6594 100.602 80.406C95.459 85.9942 89.0031 88.7721 81.4212 88.6111C68.2062 88.3305 56.9759 77.5677 57.0377 63.5585ZM102.793 70.1188C102.4 70.3162 102.014 70.5302 101.611 70.7058C101.476 70.7586 101.356 70.8442 101.262 70.9549C101.168 71.0657 101.103 71.1981 101.072 71.3402C100.953 71.7786 100.723 72.1788 100.404 72.5025C99.8665 72.9939 99.3818 73.4503 99.4099 74.2532C99.4134 74.4939 99.3461 74.7304 99.2163 74.9332C98.7294 75.6625 98.2052 76.3666 97.6985 77.0828C97.1596 77.8437 96.5244 78.4533 95.5464 78.6126C95.3528 78.6733 95.1884 78.8033 95.0847 78.9777C94.7929 79.4263 94.5409 79.9004 94.2404 80.4215C94.3917 80.4556 94.5474 80.4655 94.7018 80.4508C96.5486 79.8479 98.3925 79.2361 100.233 78.6152C100.483 78.546 100.709 78.4081 100.885 78.2173C102.679 75.8923 104.038 73.2625 104.898 70.4544C105.067 69.8825 105.195 69.2984 105.38 68.5715L102.778 70.1367L102.793 70.1188ZM88.1044 65.6185C83.8788 66.2672 79.5787 66.2621 75.3547 65.6034C75.5557 66.7733 74.9713 68.0305 76.2021 68.876C76.3178 68.9558 76.3459 69.2018 76.365 69.376C76.4058 69.6362 76.3935 69.902 76.3288 70.1573C76.2641 70.4126 76.1484 70.6521 75.9886 70.8615C75.8507 71.0327 75.7741 71.2452 75.7711 71.465C75.8341 72.3813 75.9419 73.2943 76.037 74.2403C77.5079 74.3601 78.9122 74.5124 80.3229 74.58C81.4842 74.6353 82.6513 74.6234 83.8138 74.5819C84.9027 74.5431 85.9902 74.4382 87.0749 74.3284C87.1606 74.3006 87.2383 74.2521 87.3009 74.1872C87.3636 74.1223 87.4094 74.043 87.4343 73.9563C87.5838 72.9644 87.7115 71.9677 87.8104 70.97C87.8864 70.2057 87.9146 69.4366 87.9556 68.6699C88.0098 67.6656 88.0546 66.6602 88.1044 65.6185ZM74.5765 64.8151C74.7567 61.1611 74.9325 57.5919 75.1024 54.1479L67.5272 51.6138C67.4386 51.7759 67.3616 51.944 67.2967 52.1169C66.5566 54.3849 65.7153 56.6246 65.6641 59.0615C65.649 59.787 65.4005 60.5048 65.348 61.2325C65.2912 62.0296 65.6622 62.2783 66.4713 62.114C66.8108 62.0449 67.1579 62.0145 67.5077 61.9659C67.5739 62.9226 67.5684 62.9403 68.4422 63.2118C69.6641 63.5903 70.8889 63.9624 72.1247 64.2919C72.9465 64.5092 73.7887 64.6491 74.5769 64.8151H74.5765ZM75.8746 54.1465C75.7121 56.0721 75.502 57.975 75.4057 59.8836C75.3288 61.4098 75.4019 62.9432 75.3817 64.4732C75.3767 64.8791 75.566 65.0046 75.9175 65.0396C77.1001 65.1575 78.2827 65.388 79.4635 65.3832C81.8999 65.3731 84.3366 65.2512 86.7711 65.1451C87.2844 65.0832 87.7925 64.9843 88.2915 64.8491C87.8425 64.3771 87.4755 64.4874 87.0833 64.6151C86.7943 64.709 86.3884 64.8872 86.2006 64.7674C85.554 64.3617 84.9565 63.8824 84.4202 63.3392C83.9101 62.8107 83.5421 62.1484 83.0751 61.5746C82.5959 60.9859 82.5935 60.4279 82.9692 59.7154C83.1224 59.3408 83.1851 58.9354 83.1522 58.532C83.1487 58.1247 82.8595 57.6376 83.0035 57.3285C83.4438 56.3819 84.032 55.5038 84.5989 54.5378C81.7295 54.8818 78.8278 54.6185 75.8751 54.1465H75.8746ZM86.756 48.8858C86.5847 48.2353 86.3683 47.5905 86.2528 46.928C86.1539 46.3549 85.8029 46.3432 85.3757 46.3899C84.6756 46.4661 83.9719 46.6408 83.2775 46.6084C81.4832 46.5253 79.6908 46.3762 77.9037 46.1946C77.5156 46.1551 77.4164 46.2107 77.3395 46.5715C76.9949 48.1931 76.6018 49.8046 76.2651 51.4278C76.1252 52.1028 76.0828 52.7978 75.9776 53.6263C78.0496 53.7607 80.0191 53.921 81.9914 54.003C82.9446 54.0193 83.8979 53.9781 84.8462 53.8796C85.1326 53.8598 85.4045 53.7465 85.6203 53.5571C86.1831 52.9905 86.6903 52.369 87.2598 51.723L86.0786 51.2774C86.0786 50.9947 86.059 50.6283 86.0844 50.2651C86.1098 49.9019 86.1802 49.5434 86.2411 49.111L86.756 48.8858ZM87.4776 74.9849C83.6679 75.426 79.8181 75.3922 76.0167 74.8843C76.5543 77.0979 77.0781 79.1697 77.5477 81.2536C77.6474 81.6962 77.8999 81.7784 78.2425 81.8136C78.7643 81.8672 79.2881 81.9305 79.8114 81.9348C81.6476 81.9494 83.4843 81.9521 85.3203 81.9228C85.4335 81.9055 85.5406 81.8607 85.6325 81.7924C85.7244 81.7241 85.7982 81.6344 85.8474 81.5311C86.3999 79.4097 86.9139 77.2785 87.4781 74.9849H87.4776ZM86.5482 81.7695C86.6739 81.7987 86.8026 81.813 86.9316 81.8121C88.6188 81.5699 90.3001 81.2764 91.993 81.0874C93.1546 80.9578 93.6186 80.1343 94.0854 79.2717C94.1409 79.1322 94.15 78.9784 94.111 78.8333C93.9071 77.8749 93.5767 76.9254 93.5151 75.9581C93.4835 75.3805 93.3454 74.8137 93.1078 74.2863C92.9797 73.9968 92.903 73.9623 92.585 74.0333C91.2965 74.3208 90.0006 74.5908 88.694 74.7738C88.1583 74.8488 87.9791 75.0812 87.8957 75.546C87.6741 76.785 87.4539 78.0251 87.193 79.2562C87.0162 80.0919 86.7711 80.9125 86.5487 81.7695H86.5482ZM67.0664 79.4454C66.9555 78.8182 66.9016 78.3404 66.7832 77.8792C66.4914 76.7409 66.1183 75.6213 65.8754 74.4734C65.6636 73.4728 65.3962 72.5744 64.3583 72.117C64.1726 72.0353 64.059 71.7945 63.9062 71.6328C63.7631 71.4408 63.5918 71.2716 63.398 71.131C61.8524 70.2963 60.2945 69.4834 58.7527 68.6702C59.3144 71.3658 60.3593 73.9375 61.8368 76.261C62.3721 77.1254 62.8529 78.1095 64.0207 78.3483C64.2129 78.4045 64.401 78.474 64.5835 78.5565C65.3857 78.844 66.1878 79.1304 67.0681 79.4449L67.0664 79.4454ZM75.2227 53.3108C75.7203 50.8145 76.1992 48.4121 76.6799 45.9996L72.5349 44.7928C72.6401 45.2178 72.6159 45.7097 72.8416 45.8906C73.1705 46.1541 73.2165 46.3264 73.079 46.6812C73.0352 46.8806 73.0367 47.0873 73.0836 47.286C73.1224 47.6286 73.1823 47.9691 73.2326 48.3055H71.3441L71.7093 47.6413C70.5971 47.5749 70.2609 47.8196 70.0508 48.8079L70.784 49.0856C70.0956 49.421 69.5359 49.9371 69.0529 49.8733C68.22 49.7634 68.0967 50.193 67.8846 50.8092C70.2162 51.9473 72.6818 52.7876 75.2231 53.3103L75.2227 53.3108ZM88.8637 65.5397C88.6495 68.3973 88.4375 71.224 88.2233 74.0812C88.3162 74.0988 88.411 74.1048 88.5055 74.0991C89.4921 73.9254 90.4723 73.7009 91.4649 73.578C92.4748 73.4527 93.0384 73.0068 93.2475 71.9569C93.3613 71.386 93.8379 70.9116 93.5918 70.2299C93.3558 69.5768 93.4131 68.7155 92.9983 68.2519C92.2539 67.4195 92.3066 66.59 92.4837 65.6571C92.6112 64.9862 92.3826 64.7773 91.7261 64.9244C90.7682 65.1386 89.8055 65.3374 88.8641 65.5392L88.8637 65.5397ZM62.8992 70.1224L63.0448 69.9673C62.837 69.4948 62.5912 69.0398 62.31 68.6069C61.9118 68.0813 62.2793 67.5455 62.171 67.039C62.1125 66.7471 62.1157 66.4461 62.1804 66.1554C62.2452 65.8648 62.37 65.5909 62.547 65.3513C62.7352 65.1032 62.8552 64.8101 62.895 64.5012C62.9348 64.1923 62.893 63.8783 62.7739 63.5906C62.6658 63.3253 62.603 63.0417 62.4806 62.6375C63.3966 63.0385 63.1874 62.239 63.5326 61.9949L61.8481 61.1757C61.6432 62.515 61.7191 62.7331 62.3579 62.7956V63.6157C61.7081 63.2084 61.1497 62.8778 61.0718 62.0905C61.0531 61.9021 60.9151 61.6156 60.7689 61.5686C60.1644 61.3736 60.0075 60.6103 59.2763 60.518C58.9787 60.4799 58.7477 59.9209 58.4844 59.5965C58.4379 60.1018 58.3524 60.622 58.3488 61.1429C58.3357 63.0026 58.3398 64.8626 58.361 66.7228C58.3581 67.009 58.4399 67.2897 58.5962 67.5295C58.7524 67.7693 58.9761 67.9575 59.2391 68.0705C60.4773 68.7186 61.6803 69.4343 62.8992 70.1224ZM103.836 61.7955C103.673 62.5713 103.525 63.2611 103.384 63.9519C103.135 65.187 102.152 66.0006 101.593 67.0596C101.099 67.9912 100.994 69.0803 101.3 70.0891C102.384 69.4843 103.387 68.893 104.42 68.357C105.29 67.9054 105.675 67.3093 105.779 66.2599C105.967 64.1911 105.935 62.1083 105.684 60.0463C105.615 59.6531 105.524 59.2641 105.412 58.8811C105.062 59.1828 104.75 59.3454 104.596 59.6028C104.053 60.5669 103.186 61.308 102.15 61.6951C102.637 62.4412 103.146 61.8166 103.835 61.7955H103.836ZM61.5335 58.3485C61.4795 58.7345 61.3897 59.1146 61.2651 59.4839C61.0835 59.896 61.234 60.0693 61.5824 60.2348C62.3467 60.5976 63.0944 60.9955 63.8614 61.3525C64.1057 61.4349 64.3582 61.4911 64.6144 61.5202C64.681 60.7957 64.7378 60.1785 64.7929 59.5795L63.9361 59.3258L64.389 59.0299C64.1896 58.925 63.9673 58.8714 63.742 58.8739C63.6016 58.8634 63.3544 58.8722 63.3386 58.8183C63.0774 57.9318 62.5 58.0516 61.855 58.3938C61.9626 57.5497 62.7748 57.3774 63.3685 57.8581C63.6623 58.0957 63.95 58.3413 64.2519 58.5687C64.3135 58.6269 64.3902 58.6665 64.4733 58.6831C64.5563 58.6998 64.6424 58.6927 64.7217 58.6627C64.8009 58.6327 64.8701 58.581 64.9213 58.5135C64.9726 58.4461 65.0038 58.3655 65.0114 58.2812C65.4015 56.5877 65.793 54.8943 66.2178 53.2092C66.3855 52.5407 66.6423 51.8941 66.8587 51.2376C66.5043 51.4462 66.1941 51.7222 65.9458 52.0501C65.4302 52.6991 65.1791 53.5545 64.4045 54.0037C64.2381 54.0799 64.0961 54.2006 63.9941 54.3525C63.7725 54.8202 63.4457 55.3109 63.4485 55.7916C63.467 56.0263 63.4275 56.262 63.3336 56.4779C63.2396 56.6938 63.094 56.8833 62.9097 57.0298C62.8572 56.5724 62.8045 56.1152 62.7353 55.5143C62.4546 55.5476 62.1759 55.5956 61.9003 55.6581C61.6747 55.7339 61.4554 55.8271 61.2443 55.937C61.078 55.9884 60.9208 56.0654 60.7783 56.1653C60.0494 56.8443 59.9495 57.773 59.8199 58.6839C59.7526 59.1535 60.0096 59.3816 60.4512 59.4861C60.7713 59.0773 60.5897 58.2256 61.5335 58.3485ZM78.0477 82.5731C78.2351 83.5832 79.3561 85.7063 80.1037 86.4545C81.1952 87.5463 81.9641 87.617 83.1594 86.708C83.3544 86.5373 83.5266 86.3423 83.6719 86.1277C84.4872 85.0619 85.104 83.8581 85.4928 82.5738L78.0477 82.5731ZM76.8392 81.6808C76.8591 81.584 76.8708 81.4857 76.8742 81.3869C76.4348 79.3549 76.0042 77.321 75.5375 75.2954C75.4826 75.058 75.226 74.867 74.9816 74.5462C74.87 74.9011 74.8604 75.0827 74.7674 75.1955C74.6072 75.4261 74.3979 75.6184 74.1546 75.7586C73.8153 75.9083 73.4163 75.9162 73.061 76.0377C72.6777 76.169 72.4759 76.3942 72.6568 76.87C72.7284 77.142 72.6934 77.431 72.5589 77.6779C72.2028 78.3402 71.7258 78.9416 71.4102 79.6199C71.2375 79.9912 71.2447 80.423 70.6265 80.3221L70.6478 80.5399L76.8392 81.6808ZM85.9481 45.6776C85.616 44.8038 85.3345 44.0632 85.0561 43.3296C83.8253 43.555 83.4608 43.4609 83.088 42.7761H84.7729C84.5594 42.3635 84.3998 42.0549 84.2745 41.8132C84.0474 41.9744 83.8912 42.1611 83.7038 42.2059C82.6565 42.4546 81.6013 42.6692 80.5486 42.8949C80.4518 42.9226 80.3527 42.9408 80.2524 42.9493C78.8415 42.9699 78.0645 44.0035 77.7607 45.1411C77.7331 45.2437 77.9763 45.536 78.1107 45.5465C79.9645 45.6951 81.8196 45.8443 83.6774 45.9153C84.3871 45.9431 85.1056 45.7725 85.9481 45.6776ZM70.8987 81.2946C72.2026 83.7624 77.5115 87.2648 79.605 87.0089C79.3785 86.7459 79.1731 86.4655 78.9905 86.1703C78.4418 85.1053 77.8977 84.036 77.4066 82.944C77.3463 82.7553 77.2307 82.589 77.0748 82.4667C76.9189 82.3445 76.7299 82.2718 76.5323 82.2583C75.5372 82.1413 74.5456 81.9892 73.5577 81.8198C72.6762 81.6681 71.8024 81.4746 70.8985 81.2946H70.8987ZM99.4901 79.8748L99.3943 79.7071C99.3224 79.7255 99.2522 79.7416 99.1823 79.7626C97.5358 80.2576 95.897 80.7807 94.2382 81.2311C93.8038 81.3425 93.4105 81.5763 93.105 81.9046C92.0843 82.9571 91.078 84.03 89.9831 85.0018C89.2643 85.6392 88.4034 86.1155 87.606 86.6639C92.2868 85.632 96.1912 83.272 99.4899 79.8748H99.4901ZM83.8703 87.0262C86.2993 87.0312 90.7974 84.1173 92.2254 81.7652C90.6094 81.9691 88.9399 82.1612 87.2776 82.4027C86.8607 82.4634 86.3015 82.3309 86.1048 82.92C85.6181 84.4142 84.8605 85.8061 83.8701 87.0262H83.8703ZM84.9049 41.3932L86.6683 45.4974L87.0195 45.4255C87.2205 45.1306 87.3605 44.7499 87.5047 44.7482C87.8521 44.7439 88.2017 44.9171 88.5503 45.0187C88.5386 45.0738 88.5263 45.1289 88.5148 45.184L90.0262 44.7798C89.8942 44.0021 90.4771 44.0023 91.0399 43.9159C89.8475 42.7226 88.4659 41.7349 86.951 40.9928C86.0976 40.5798 85.482 40.7101 84.9046 41.3932H84.9049ZM63.979 79.0829C66.5062 82.2719 73.3768 86.6105 75.4105 86.3927C74.6656 85.8361 73.8788 85.251 73.0953 84.6614C72.8222 84.4558 72.5867 84.1697 72.2828 84.0418C71.5744 83.7433 70.7233 83.6668 70.1363 83.2272C69.4207 82.69 68.9192 81.8692 68.3183 81.1767C68.0612 80.8804 67.8403 80.4687 67.5106 80.3338C66.3874 79.8736 65.2232 79.514 63.9788 79.0829H63.979ZM73.2033 44.2772L76.9992 45.3774C77.1162 44.948 77.2106 44.6004 77.3088 44.2393C76.4463 44.1327 76.3365 44.0716 76.2987 43.5958C76.256 43.0627 76.188 42.4864 76.9643 42.4826V41.5091C76.4573 41.4451 75.9424 41.4993 75.4599 41.6675C74.9774 41.8357 74.5404 42.1133 74.183 42.4785C74.1493 42.5452 74.1317 42.6189 74.1317 42.6936C74.1317 42.7683 74.1493 42.8419 74.183 42.9086C74.2458 43.0284 74.4159 43.0938 74.6967 43.2967L73.3215 43.7745C73.315 43.7975 73.2736 43.9717 73.2017 44.2772H73.2033ZM70.4943 64.6215C70.5117 64.8302 70.5542 65.0361 70.6208 65.2347C70.8419 65.6659 71.0003 66.3071 71.3559 66.4566C72.4803 66.9298 73.4492 67.8505 74.8182 67.7223C74.7648 67.0275 74.7082 66.2882 74.6505 65.5406L70.4943 64.6215ZM93.1797 51.8701C93.0458 51.6816 92.9471 51.5428 92.8141 51.3552L93.8558 51.2769C93.6595 51.0258 93.4493 50.7858 93.2262 50.5581C92.8304 50.2033 92.4116 49.8729 92.0007 49.536C91.9099 49.462 91.7997 49.34 91.7093 49.3491C91.1911 49.4013 90.6762 49.4867 90.3295 49.5365C90.0329 49.8058 89.8166 49.9917 89.6134 50.1906C89.4445 50.3557 89.1672 50.526 89.1526 50.7124C89.0925 51.4872 88.6016 51.6681 87.9307 51.7666C87.9985 51.8327 88.0788 51.8845 88.167 51.919C88.2551 51.9535 88.3493 51.97 88.4439 51.9676C88.7151 51.9178 88.966 51.7216 89.2346 51.6998C90.1199 51.6279 91.0097 51.5757 91.8974 51.5838C92.2242 51.5869 92.5491 51.78 92.8749 51.8864L92.8426 52.0481L93.1797 51.8701ZM87.6755 40.3577C88.892 41.322 90.0782 42.277 91.285 43.2055C91.4877 43.3617 91.6875 43.5613 92.0687 43.3013C92.3658 43.0979 92.8757 43.2016 93.2906 43.1743C93.5635 43.1563 93.8372 43.1482 94.1103 43.1357C92.1482 41.8333 89.969 40.8922 87.6755 40.3569V40.3577ZM95.3121 51.7906L92.6838 52.8532L92.6632 53.0209C92.9679 53.1081 93.2763 53.1848 93.576 53.2864C93.7576 53.346 93.9307 53.4292 94.0907 53.5339C94.4817 53.7974 94.8598 54.078 95.3423 54.423C95.2441 53.4663 95.407 53.283 96.8278 53.8676L96.2377 52.1859C95.6394 52.6761 95.5735 52.0163 95.3121 51.7899V51.7906ZM89.4447 46.4939C89.0836 47.4252 88.1875 46.728 87.6089 47.1988C87.5759 46.7596 87.5531 46.456 87.5282 46.1223C86.8861 46.4577 86.8894 46.8878 87.0938 47.3993C87.1811 47.6652 87.2452 47.9382 87.2855 48.2151C87.4568 49.0362 87.418 49.2528 88.5038 49.0364C88.8632 48.0656 87.7742 48.0136 87.4144 47.4525C88.4389 47.3001 89.3826 47.1815 90.1335 46.503C90.2595 46.4016 90.4096 46.3346 90.5691 46.3082C90.64 46.3051 90.7092 46.2862 90.7719 46.253C90.8345 46.2197 90.889 46.1729 90.9313 46.116C90.9736 46.0591 91.0026 45.9934 91.0164 45.9238C91.0301 45.8543 91.0281 45.7825 91.0107 45.7138C91.0117 45.6378 91.0234 45.5624 91.0454 45.4897L91.5658 45.3865L91.5318 45.2113C90.6038 45.0915 89.7976 45.6186 88.8134 45.8151L89.4447 46.4939ZM70.7509 43.8943C70.6423 43.9439 70.5366 43.9994 70.4341 44.0606C69.9916 44.372 69.5795 44.8922 69.1053 44.9554C68.2188 45.0736 67.6381 45.6644 66.925 46.0379C66.6497 46.1817 66.4715 46.5107 66.1495 46.8645L67.4888 47.0878C67.4766 47.2354 67.4627 47.4051 67.4555 47.4918C67.7928 47.1921 68.1563 46.9012 68.4795 46.5713C68.7031 46.3434 68.826 46.0008 69.0737 45.817C69.5496 45.4636 69.706 44.719 70.4554 44.6981C70.5418 44.6946 70.6239 44.6598 70.6864 44.6001C70.7128 44.3059 70.7267 44.1567 70.7509 43.8936V43.8943ZM97.0932 52.4351C97.2849 53.0667 97.4076 53.5684 97.5988 54.0425C97.6594 54.1927 97.9582 54.3983 98.054 54.3578C98.5878 54.134 98.8605 54.4671 99.1561 54.8267C99.2483 54.4107 99.304 53.9874 99.3227 53.5617C99.3114 53.26 99.3425 52.747 98.7237 52.9768C98.6518 53.0039 98.5392 52.9344 98.4477 52.903C98.0363 52.7616 97.6263 52.6179 97.0932 52.4344V52.4351ZM75.5976 40.6737C74.5101 40.7149 71.0453 42.1987 70.1037 43.0217C71.1541 42.7507 72.1523 42.6103 73.0476 42.2289C73.9241 41.8549 74.697 41.2355 75.5976 40.6737ZM99.5711 55.7067L99.4034 55.7817C100.068 57.3501 100.732 58.9183 101.409 60.5149L101.858 60.2513L99.5711 55.7067ZM94.4112 45.6364C94.1716 45.4562 93.8585 45.3208 93.7224 45.0836C93.616 44.8982 93.7301 44.5865 93.7476 44.31L93.0403 44.6421C93.3335 45.2236 93.6069 45.7658 93.8844 46.3163C94.1084 46.0257 94.2493 45.8441 94.41 45.6364H94.4112ZM90.997 64.3901C90.4459 63.8028 89.3702 63.9924 88.6905 64.8352L90.997 64.3901ZM80.5666 40.269H82.8427C82.2315 39.5912 81.3239 39.6178 80.5654 40.269H80.5666ZM94.5995 50.6793L94.734 50.5071L93.0051 49.1141C93.2233 49.9788 93.9553 50.2802 94.5974 50.6793H94.5995ZM79.6729 40.1566L79.6034 39.9506L77.534 40.5374C77.5472 40.5874 77.5601 40.6375 77.5733 40.6876C78.2571 40.4499 79.0576 40.6835 79.6707 40.1566H79.6729ZM71.657 83.6599L70.6929 82.5113C70.6455 83.0242 71.1651 83.5269 71.6551 83.6599H71.657ZM105.446 58.222L105.212 57.9654L104.086 57.6115L104.76 58.5414L105.446 58.222Z" fill="#007BB0"/>
<g clip-path="url(#clip0)">
<path d="M14.0869 134.315C14.0869 138.073 16.9143 141.008 20.8154 141.008C24.7165 141.008 27.5439 138.073 27.5439 134.315C27.5439 130.647 24.7165 127.784 20.8154 127.784C16.9143 127.784 14.0869 130.647 14.0869 134.315ZM17.3975 134.315C17.3975 132.168 18.9364 130.557 20.8154 130.557C22.6944 130.557 24.2333 132.168 24.2333 134.315C24.2333 136.552 22.6944 138.234 20.8154 138.234C18.9364 138.234 17.3975 136.552 17.3975 134.315ZM28.6411 136.194C28.6411 139.04 30.2516 141.008 32.7032 141.008C34.8506 141.008 35.5485 139.487 35.5485 139.487H35.5843C35.5843 139.487 35.5485 139.612 35.5485 139.773V139.827C35.5485 140.274 35.8885 140.793 36.7833 140.793H39.4496V138.556H38.7696C38.5191 138.556 38.3759 138.413 38.3759 138.163V127.998H34.0274V130.235H35.2801V131.685C35.2801 132.025 35.298 132.275 35.298 132.275H35.2622C35.2622 132.275 34.6717 131.363 32.9001 131.363C30.359 131.363 28.6411 133.259 28.6411 136.194ZM31.7548 136.194C31.7548 134.763 32.578 133.975 33.598 133.975C34.779 133.975 35.3696 135.049 35.3696 136.266C35.3696 137.751 34.4748 138.449 33.5443 138.449C32.4885 138.449 31.7548 137.536 31.7548 136.194ZM41.0297 141.634L40.0812 143.835C40.0812 143.835 41.1192 144.551 42.7118 144.551C44.5013 144.551 46.1655 143.8 47.0066 141.598L49.9771 133.814H50.9256V131.577H46.1476V133.814H46.9887L45.8971 137.232C45.7003 137.787 45.6108 138.431 45.6108 138.431H45.5392C45.5392 138.431 45.5034 137.787 45.3245 137.232L44.1971 133.814H45.0918V131.577H40.0276V133.814H41.0655L44.1076 141.223L44.0718 141.312C43.8213 141.885 43.195 142.064 42.5507 142.064C41.5665 142.064 41.0297 141.634 41.0297 141.634ZM51.569 138.771C51.569 140.31 53.8595 141.008 55.5058 141.008C57.689 141.008 59.7112 140.113 59.7112 138.037C59.7112 136.123 57.9753 135.55 56.5795 135.174C55.7027 134.942 54.969 134.727 54.969 134.172C54.969 133.814 55.3448 133.707 55.8459 133.707C56.508 133.707 56.7764 133.922 56.7764 134.208V134.619H59.3712V133.367C59.3712 131.864 57.2596 131.363 55.8459 131.363C54.0743 131.363 51.8911 131.971 51.8911 134.136C51.8911 135.997 53.4837 136.642 54.8258 137.089C56.0069 137.483 56.6332 137.554 56.6332 138.127C56.6332 138.485 56.2395 138.664 55.5058 138.664C54.6111 138.664 54.1637 138.413 54.1637 138.002V137.536H51.569V138.771ZM60.6737 138.771C60.6737 140.31 62.9643 141.008 64.6106 141.008C66.7938 141.008 68.8159 140.113 68.8159 138.037C68.8159 136.123 67.0801 135.55 65.6843 135.174C64.8074 134.942 64.0737 134.727 64.0737 134.172C64.0737 133.814 64.4495 133.707 64.9506 133.707C65.6127 133.707 65.8811 133.922 65.8811 134.208V134.619H68.4759V133.367C68.4759 131.864 66.3643 131.363 64.9506 131.363C63.179 131.363 60.9958 131.971 60.9958 134.136C60.9958 135.997 62.5885 136.642 63.9306 137.089C65.1117 137.483 65.738 137.554 65.738 138.127C65.738 138.485 65.3443 138.664 64.6106 138.664C63.7158 138.664 63.2685 138.413 63.2685 138.002V137.536H60.6737V138.771ZM69.7427 136.176C69.7427 138.628 71.5143 141.008 74.8069 141.008C77.2943 141.008 78.7796 139.72 78.7796 139.72L77.6522 137.572C77.6522 137.572 76.4175 138.449 75.0575 138.449C74.0732 138.449 73.1427 137.93 72.9101 136.749H78.7617C78.7617 136.749 78.8333 136.123 78.8333 135.818C78.8333 133.259 77.2943 131.363 74.5385 131.363C71.568 131.363 69.7427 133.474 69.7427 136.176ZM72.9817 135.049C73.1427 134.333 73.5722 133.689 74.4669 133.689C75.1469 133.689 75.6301 134.315 75.6301 135.049H72.9817ZM80.437 141.634L79.4886 143.835C79.4886 143.835 80.5265 144.551 82.1191 144.551C83.9086 144.551 85.5728 143.8 86.4139 141.598L89.3845 133.814H90.3329V131.577H85.5549V133.814H86.396L85.3044 137.232C85.1076 137.787 85.0181 138.431 85.0181 138.431H84.9465C84.9465 138.431 84.9107 137.787 84.7318 137.232L83.6044 133.814H84.4991V131.577H79.4349V133.814H80.4728L83.5149 141.223L83.4791 141.312C83.2286 141.885 82.6023 142.064 81.9581 142.064C80.9738 142.064 80.437 141.634 80.437 141.634ZM95.1816 130.325H96.2553L98.7964 140.793H102.322L103.95 134.244C104.111 133.617 104.165 132.83 104.165 132.83H104.236C104.236 132.83 104.29 133.617 104.451 134.244L106.08 140.793H109.605L112.146 130.325H113.22V127.998H107.547V130.325H109.032L107.851 135.997C107.726 136.624 107.69 137.339 107.69 137.339H107.619C107.619 137.339 107.565 136.624 107.404 135.997L105.435 127.998H102.966L100.997 135.997C100.836 136.624 100.783 137.339 100.783 137.339H100.711C100.711 137.339 100.675 136.624 100.55 135.997L99.369 130.325H100.854V127.998H95.1816V130.325ZM113.257 136.212C113.257 139.093 115.583 141.008 118.482 141.008C121.381 141.008 123.707 139.093 123.707 136.212C123.707 133.313 121.381 131.363 118.464 131.363C115.583 131.363 113.257 133.313 113.257 136.212ZM116.388 136.212C116.388 134.816 117.355 133.939 118.482 133.939C119.609 133.939 120.576 134.816 120.576 136.212C120.576 137.59 119.609 138.431 118.482 138.431C117.355 138.431 116.388 137.59 116.388 136.212ZM124.849 140.793H130.45V138.556H129.197V137.214C129.197 135.532 130.021 134.441 131.738 134.441C132.114 134.441 132.365 134.494 132.365 134.494V131.452C132.365 131.452 132.186 131.416 132.007 131.416C130.629 131.416 129.466 132.454 129.072 133.707H129.036C129.036 133.707 129.072 133.528 129.072 133.242V132.758C129.072 131.917 128.607 131.577 127.766 131.577H124.849V133.814H125.708C125.958 133.814 126.102 133.957 126.102 134.208V138.556H124.849V140.793ZM133.789 137.393C133.789 140.489 135.543 140.883 137.189 140.883C137.69 140.883 138.12 140.829 138.12 140.829V138.377C138.12 138.377 137.941 138.395 137.744 138.395C137.046 138.395 136.885 138.091 136.885 137.214V127.998H132.536V130.235H133.789V137.393ZM139.139 136.194C139.139 139.04 140.749 141.008 143.201 141.008C145.348 141.008 146.046 139.487 146.046 139.487H146.082C146.082 139.487 146.046 139.612 146.046 139.773V139.827C146.046 140.274 146.386 140.793 147.281 140.793H149.947V138.556H149.267C149.017 138.556 148.874 138.413 148.874 138.163V127.998H144.525V130.235H145.778V131.685C145.778 132.025 145.796 132.275 145.796 132.275H145.76C145.76 132.275 145.169 131.363 143.398 131.363C140.857 131.363 139.139 133.259 139.139 136.194ZM142.253 136.194C142.253 134.763 143.076 133.975 144.096 133.975C145.277 133.975 145.867 135.049 145.867 136.266C145.867 137.751 144.973 138.449 144.042 138.449C142.986 138.449 142.253 137.536 142.253 136.194Z" fill="white"/>
<path d="M7.38739 155.793H5.95535V148.124H7.38739V155.793ZM9.0417 155.793V150.351H9.84258C10.0123 150.351 10.1237 150.431 10.1767 150.59L10.2669 151.02C10.3765 150.907 10.4914 150.804 10.6116 150.712C10.7354 150.62 10.8645 150.541 10.9988 150.473C11.1367 150.406 11.2835 150.355 11.439 150.32C11.5946 150.284 11.7643 150.267 11.9482 150.267C12.2452 150.267 12.5087 150.318 12.7385 150.42C12.9683 150.519 13.1593 150.661 13.3113 150.845C13.4669 151.025 13.5836 151.242 13.6614 151.497C13.7427 151.748 13.7834 152.026 13.7834 152.33V155.793H12.4733V152.33C12.4733 151.997 12.3955 151.741 12.2399 151.561C12.0879 151.377 11.8581 151.285 11.5504 151.285C11.3241 151.285 11.112 151.336 10.914 151.439C10.716 151.541 10.5285 151.681 10.3518 151.858V155.793H9.0417ZM16.8581 155.878C16.3878 155.878 16.0254 155.745 15.7708 155.48C15.5162 155.212 15.3889 154.842 15.3889 154.372V151.333H14.8373C14.7666 151.333 14.7047 151.31 14.6517 151.264C14.6022 151.218 14.5774 151.149 14.5774 151.057V150.537L15.4526 150.394L15.7284 148.909C15.7425 148.838 15.7743 148.783 15.8238 148.744C15.8769 148.705 15.9423 148.686 16.0201 148.686H16.699V150.399H18.131V151.333H16.699V154.282C16.699 154.451 16.7414 154.584 16.8263 154.679C16.9111 154.775 17.0243 154.823 17.1657 154.823C17.247 154.823 17.3142 154.814 17.3673 154.796C17.4238 154.775 17.4716 154.754 17.5105 154.732C17.5529 154.711 17.59 154.692 17.6219 154.674C17.6537 154.653 17.6855 154.642 17.7173 154.642C17.7562 154.642 17.788 154.653 17.8128 154.674C17.8375 154.692 17.8641 154.72 17.8924 154.759L18.2848 155.395C18.0939 155.555 17.8747 155.675 17.6272 155.756C17.3796 155.837 17.1233 155.878 16.8581 155.878ZM21.4217 150.267C21.7647 150.267 22.0794 150.321 22.3658 150.431C22.6558 150.541 22.9051 150.702 23.1137 150.914C23.3223 151.122 23.4849 151.38 23.6016 151.688C23.7183 151.992 23.7767 152.34 23.7767 152.733C23.7767 152.832 23.7714 152.915 23.7607 152.982C23.7537 153.046 23.7378 153.097 23.713 153.136C23.6918 153.171 23.6617 153.198 23.6228 153.216C23.5839 153.23 23.5344 153.237 23.4743 153.237H20.1117C20.1506 153.795 20.3009 154.206 20.5625 154.467C20.8242 154.729 21.1707 154.86 21.6021 154.86C21.8142 154.86 21.9963 154.835 22.1484 154.785C22.3039 154.736 22.4383 154.681 22.5515 154.621C22.6681 154.561 22.7689 154.506 22.8538 154.457C22.9422 154.407 23.027 154.382 23.1084 154.382C23.1614 154.382 23.2074 154.393 23.2463 154.414C23.2852 154.435 23.3188 154.465 23.347 154.504L23.7289 154.982C23.5839 155.151 23.4213 155.295 23.241 155.411C23.0606 155.524 22.8715 155.616 22.6735 155.687C22.479 155.754 22.2792 155.802 22.0741 155.83C21.8726 155.859 21.6763 155.873 21.4854 155.873C21.107 155.873 20.7552 155.811 20.4299 155.687C20.1046 155.56 19.8217 155.374 19.5813 155.13C19.3409 154.883 19.1517 154.579 19.0138 154.218C18.8759 153.854 18.8069 153.433 18.8069 152.956C18.8069 152.584 18.867 152.236 18.9873 151.911C19.1075 151.582 19.279 151.297 19.5017 151.057C19.728 150.813 20.0021 150.62 20.3238 150.479C20.6491 150.337 21.0151 150.267 21.4217 150.267ZM21.4483 151.205C21.0664 151.205 20.7676 151.313 20.5519 151.529C20.3362 151.745 20.1983 152.05 20.1382 152.446H22.5992C22.5992 152.277 22.5762 152.118 22.5302 151.969C22.4843 151.817 22.4136 151.684 22.3181 151.571C22.2226 151.458 22.1024 151.37 21.9574 151.306C21.8125 151.239 21.6427 151.205 21.4483 151.205ZM24.8393 155.793V150.351H25.6084C25.7428 150.351 25.8365 150.376 25.8895 150.426C25.9425 150.475 25.9779 150.56 25.9956 150.68L26.0751 151.338C26.2696 151.002 26.4977 150.737 26.7593 150.542C27.021 150.348 27.3145 150.251 27.6398 150.251C27.9085 150.251 28.1313 150.313 28.3081 150.436L28.1383 151.418C28.1277 151.481 28.1047 151.527 28.0694 151.555C28.034 151.58 27.9863 151.593 27.9262 151.593C27.8731 151.593 27.8007 151.58 27.7087 151.555C27.6168 151.531 27.4948 151.518 27.3428 151.518C27.0705 151.518 26.8371 151.594 26.6426 151.746C26.4482 151.895 26.2838 152.114 26.1494 152.404V155.793H24.8393ZM29.1694 155.793V150.351H29.9703C30.14 150.351 30.2514 150.431 30.3045 150.59L30.3946 151.02C30.5042 150.907 30.6192 150.804 30.7394 150.712C30.8631 150.62 30.9922 150.541 31.1266 150.473C31.2645 150.406 31.4112 150.355 31.5668 150.32C31.7224 150.284 31.8921 150.267 32.076 150.267C32.373 150.267 32.6364 150.318 32.8662 150.42C33.0961 150.519 33.287 150.661 33.439 150.845C33.5946 151.025 33.7113 151.242 33.7891 151.497C33.8704 151.748 33.9111 152.026 33.9111 152.33V155.793H32.601V152.33C32.601 151.997 32.5232 151.741 32.3677 151.561C32.2156 151.377 31.9858 151.285 31.6782 151.285C31.4519 151.285 31.2397 151.336 31.0417 151.439C30.8437 151.541 30.6563 151.681 30.4795 151.858V155.793H29.1694ZM39.4627 155.793H38.874C38.7503 155.793 38.653 155.776 38.5823 155.74C38.5116 155.701 38.4585 155.625 38.4232 155.512L38.3065 155.125C38.1686 155.249 38.0325 155.358 37.8981 155.454C37.7673 155.546 37.6311 155.623 37.4897 155.687C37.3483 155.751 37.198 155.799 37.0389 155.83C36.8798 155.862 36.703 155.878 36.5085 155.878C36.2787 155.878 36.0665 155.848 35.872 155.788C35.6776 155.724 35.5096 155.631 35.3682 155.507C35.2303 155.383 35.1224 155.229 35.0446 155.045C34.9668 154.862 34.9279 154.648 34.9279 154.404C34.9279 154.199 34.981 153.997 35.0871 153.799C35.1967 153.597 35.377 153.417 35.628 153.258C35.8791 153.095 36.2132 152.961 36.6305 152.855C37.0477 152.749 37.5657 152.689 38.1845 152.675V152.356C38.1845 151.992 38.1067 151.723 37.9511 151.55C37.7991 151.373 37.5763 151.285 37.2829 151.285C37.0707 151.285 36.8939 151.31 36.7525 151.359C36.611 151.409 36.4873 151.465 36.3812 151.529C36.2787 151.589 36.1832 151.644 36.0948 151.693C36.0064 151.743 35.9092 151.768 35.8031 151.768C35.7147 151.768 35.6387 151.745 35.575 151.699C35.5114 151.653 35.4601 151.596 35.4212 151.529L35.1825 151.11C35.8084 150.537 36.5633 150.251 37.4473 150.251C37.7655 150.251 38.0484 150.304 38.2959 150.41C38.5469 150.512 38.7591 150.657 38.9324 150.845C39.1056 151.029 39.2364 151.25 39.3248 151.508C39.4168 151.766 39.4627 152.049 39.4627 152.356V155.793ZM36.9169 154.976C37.0513 154.976 37.175 154.964 37.2882 154.939C37.4013 154.915 37.5074 154.877 37.6064 154.828C37.7089 154.778 37.8062 154.718 37.8981 154.648C37.9936 154.573 38.089 154.487 38.1845 154.388V153.47C37.8026 153.488 37.4826 153.521 37.2245 153.571C36.9699 153.617 36.7648 153.677 36.6093 153.751C36.4537 153.825 36.3423 153.912 36.2751 154.011C36.2115 154.11 36.1797 154.218 36.1797 154.335C36.1797 154.564 36.2468 154.729 36.3812 154.828C36.5191 154.927 36.6977 154.976 36.9169 154.976ZM42.5383 155.878C42.068 155.878 41.7056 155.745 41.451 155.48C41.1964 155.212 41.0691 154.842 41.0691 154.372V151.333H40.5175C40.4468 151.333 40.385 151.31 40.3319 151.264C40.2824 151.218 40.2577 151.149 40.2577 151.057V150.537L41.1328 150.394L41.4086 148.909C41.4227 148.838 41.4546 148.783 41.5041 148.744C41.5571 148.705 41.6225 148.686 41.7003 148.686H42.3792V150.399H43.8112V151.333H42.3792V154.282C42.3792 154.451 42.4216 154.584 42.5065 154.679C42.5914 154.775 42.7045 154.823 42.8459 154.823C42.9273 154.823 42.9945 154.814 43.0475 154.796C43.1041 154.775 43.1518 154.754 43.1907 154.732C43.2331 154.711 43.2703 154.692 43.3021 154.674C43.3339 154.653 43.3657 154.642 43.3975 154.642C43.4364 154.642 43.4683 154.653 43.493 154.674C43.5178 154.692 43.5443 154.72 43.5726 154.759L43.9651 155.395C43.7741 155.555 43.5549 155.675 43.3074 155.756C43.0599 155.837 42.8035 155.878 42.5383 155.878ZM46.248 150.351V155.793H44.938V150.351H46.248ZM46.4443 148.766C46.4443 148.879 46.4213 148.985 46.3753 149.084C46.3294 149.183 46.2675 149.269 46.1897 149.344C46.1154 149.418 46.027 149.478 45.9245 149.524C45.822 149.566 45.7123 149.588 45.5957 149.588C45.4825 149.588 45.3747 149.566 45.2721 149.524C45.1731 149.478 45.0865 149.418 45.0122 149.344C44.938 149.269 44.8779 149.183 44.8319 149.084C44.7895 148.985 44.7683 148.879 44.7683 148.766C44.7683 148.649 44.7895 148.539 44.8319 148.437C44.8779 148.334 44.938 148.246 45.0122 148.172C45.0865 148.097 45.1731 148.039 45.2721 147.997C45.3747 147.951 45.4825 147.928 45.5957 147.928C45.7123 147.928 45.822 147.951 45.9245 147.997C46.027 148.039 46.1154 148.097 46.1897 148.172C46.2675 148.246 46.3294 148.334 46.3753 148.437C46.4213 148.539 46.4443 148.649 46.4443 148.766ZM50.056 150.267C50.4627 150.267 50.8304 150.332 51.1592 150.463C51.4916 150.594 51.7745 150.779 52.0079 151.02C52.2412 151.26 52.4216 151.554 52.5489 151.9C52.6762 152.247 52.7398 152.634 52.7398 153.062C52.7398 153.493 52.6762 153.882 52.5489 154.229C52.4216 154.575 52.2412 154.87 52.0079 155.114C51.7745 155.358 51.4916 155.546 51.1592 155.677C50.8304 155.807 50.4627 155.873 50.056 155.873C49.6494 155.873 49.2799 155.807 48.9475 155.677C48.6152 155.546 48.3305 155.358 48.0936 155.114C47.8602 154.87 47.6781 154.575 47.5473 154.229C47.42 153.882 47.3564 153.493 47.3564 153.062C47.3564 152.634 47.42 152.247 47.5473 151.9C47.6781 151.554 47.8602 151.26 48.0936 151.02C48.3305 150.779 48.6152 150.594 48.9475 150.463C49.2799 150.332 49.6494 150.267 50.056 150.267ZM50.056 154.865C50.5086 154.865 50.8428 154.713 51.0585 154.409C51.2777 154.105 51.3873 153.659 51.3873 153.072C51.3873 152.485 51.2777 152.038 51.0585 151.73C50.8428 151.423 50.5086 151.269 50.056 151.269C49.5964 151.269 49.2569 151.425 49.0377 151.736C48.8185 152.043 48.7089 152.489 48.7089 153.072C48.7089 153.656 48.8185 154.101 49.0377 154.409C49.2569 154.713 49.5964 154.865 50.056 154.865ZM53.7619 155.793V150.351H54.5628C54.7326 150.351 54.8439 150.431 54.897 150.59L54.9871 151.02C55.0968 150.907 55.2117 150.804 55.3319 150.712C55.4556 150.62 55.5847 150.541 55.7191 150.473C55.857 150.406 56.0037 150.355 56.1593 150.32C56.3149 150.284 56.4846 150.267 56.6685 150.267C56.9655 150.267 57.2289 150.318 57.4587 150.42C57.6886 150.519 57.8795 150.661 58.0316 150.845C58.1871 151.025 58.3038 151.242 58.3816 151.497C58.4629 151.748 58.5036 152.026 58.5036 152.33V155.793H57.1935V152.33C57.1935 151.997 57.1158 151.741 56.9602 151.561C56.8081 151.377 56.5783 151.285 56.2707 151.285C56.0444 151.285 55.8322 151.336 55.6342 151.439C55.4362 151.541 55.2488 151.681 55.072 151.858V155.793H53.7619ZM64.0553 155.793H63.4665C63.3428 155.793 63.2455 155.776 63.1748 155.74C63.1041 155.701 63.0511 155.625 63.0157 155.512L62.899 155.125C62.7611 155.249 62.625 155.358 62.4906 155.454C62.3598 155.546 62.2237 155.623 62.0822 155.687C61.9408 155.751 61.7905 155.799 61.6314 155.83C61.4723 155.862 61.2955 155.878 61.101 155.878C60.8712 155.878 60.659 155.848 60.4645 155.788C60.2701 155.724 60.1021 155.631 59.9607 155.507C59.8228 155.383 59.7149 155.229 59.6371 155.045C59.5593 154.862 59.5205 154.648 59.5205 154.404C59.5205 154.199 59.5735 153.997 59.6796 153.799C59.7892 153.597 59.9695 153.417 60.2206 153.258C60.4716 153.095 60.8058 152.961 61.223 152.855C61.6402 152.749 62.1582 152.689 62.777 152.675V152.356C62.777 151.992 62.6992 151.723 62.5437 151.55C62.3916 151.373 62.1688 151.285 61.8754 151.285C61.6632 151.285 61.4864 151.31 61.345 151.359C61.2035 151.409 61.0798 151.465 60.9737 151.529C60.8712 151.589 60.7757 151.644 60.6873 151.693C60.5989 151.743 60.5017 151.768 60.3956 151.768C60.3072 151.768 60.2312 151.745 60.1675 151.699C60.1039 151.653 60.0526 151.596 60.0137 151.529L59.775 151.11C60.4009 150.537 61.1558 150.251 62.0398 150.251C62.358 150.251 62.6409 150.304 62.8884 150.41C63.1395 150.512 63.3516 150.657 63.5249 150.845C63.6981 151.029 63.829 151.25 63.9174 151.508C64.0093 151.766 64.0553 152.049 64.0553 152.356V155.793ZM61.5094 154.976C61.6438 154.976 61.7675 154.964 61.8807 154.939C61.9938 154.915 62.0999 154.877 62.1989 154.828C62.3014 154.778 62.3987 154.718 62.4906 154.648C62.5861 154.573 62.6816 154.487 62.777 154.388V153.47C62.3951 153.488 62.0751 153.521 61.817 153.571C61.5624 153.617 61.3574 153.677 61.2018 153.751C61.0462 153.825 60.9348 153.912 60.8676 154.011C60.804 154.11 60.7722 154.218 60.7722 154.335C60.7722 154.564 60.8393 154.729 60.9737 154.828C61.1116 154.927 61.2902 154.976 61.5094 154.976ZM66.7383 147.912V155.793H65.4283V147.912H66.7383ZM75.1857 148.124V149.259H71.786V151.386H74.4644V152.484H71.786V154.653H75.1857V155.793H70.3486V148.124H75.1857ZM80.1742 155.793C80.0045 155.793 79.8931 155.714 79.84 155.555L79.734 155.029C79.6208 155.157 79.5024 155.272 79.3786 155.374C79.2549 155.477 79.1205 155.565 78.9755 155.639C78.8341 155.714 78.6803 155.77 78.5141 155.809C78.3514 155.852 78.1746 155.873 77.9837 155.873C77.6867 155.873 77.4144 155.811 77.1669 155.687C76.9194 155.563 76.7055 155.385 76.5251 155.151C76.3483 154.915 76.2104 154.623 76.1114 154.276C76.016 153.93 75.9682 153.534 75.9682 153.088C75.9682 152.685 76.023 152.31 76.1326 151.964C76.2423 151.617 76.3996 151.317 76.6047 151.062C76.8098 150.808 77.0555 150.61 77.3419 150.468C77.6283 150.323 77.9501 150.251 78.3072 150.251C78.6113 150.251 78.8712 150.3 79.0869 150.399C79.3026 150.495 79.4953 150.624 79.665 150.786V147.912H80.9751V155.793H80.1742ZM78.4292 154.833C78.7015 154.833 78.9331 154.777 79.124 154.663C79.315 154.55 79.4953 154.389 79.665 154.181V151.741C79.5165 151.561 79.3539 151.433 79.1771 151.359C79.0038 151.285 78.8164 151.248 78.6149 151.248C78.4168 151.248 78.2365 151.285 78.0739 151.359C77.9147 151.433 77.7786 151.547 77.6655 151.699C77.5558 151.847 77.471 152.038 77.4109 152.271C77.3508 152.501 77.3207 152.774 77.3207 153.088C77.3207 153.406 77.3455 153.677 77.395 153.9C77.448 154.119 77.5223 154.299 77.6177 154.441C77.7132 154.579 77.8299 154.679 77.9678 154.743C78.1057 154.803 78.2595 154.833 78.4292 154.833ZM83.5932 150.351V153.81C83.5932 154.142 83.6692 154.4 83.8213 154.584C83.9768 154.764 84.2084 154.854 84.5161 154.854C84.7424 154.854 84.9545 154.805 85.1525 154.706C85.3505 154.603 85.5379 154.464 85.7147 154.287V150.351H87.0248V155.793H86.2239C86.0542 155.793 85.9428 155.714 85.8898 155.555L85.7996 155.12C85.6864 155.233 85.5698 155.337 85.4495 155.433C85.3293 155.524 85.2003 155.604 85.0624 155.671C84.928 155.735 84.7813 155.784 84.6221 155.82C84.4666 155.859 84.2986 155.878 84.1183 155.878C83.8213 155.878 83.5578 155.829 83.328 155.73C83.1017 155.627 82.9108 155.484 82.7552 155.3C82.5996 155.116 82.4811 154.899 82.3998 154.648C82.322 154.393 82.2831 154.114 82.2831 153.81V150.351H83.5932ZM92.2476 151.502C92.2087 151.552 92.1698 151.591 92.1309 151.619C92.0956 151.647 92.0425 151.662 91.9718 151.662C91.9046 151.662 91.8392 151.642 91.7756 151.603C91.7119 151.561 91.6359 151.515 91.5475 151.465C91.4591 151.412 91.353 151.366 91.2293 151.327C91.109 151.285 90.9588 151.264 90.7784 151.264C90.5486 151.264 90.347 151.306 90.1738 151.391C90.0005 151.472 89.8556 151.591 89.7389 151.746C89.6257 151.902 89.5409 152.091 89.4843 152.314C89.4277 152.533 89.3994 152.782 89.3994 153.062C89.3994 153.352 89.4295 153.61 89.4896 153.836C89.5532 154.062 89.6434 154.253 89.7601 154.409C89.8768 154.561 90.0182 154.678 90.1844 154.759C90.3506 154.837 90.538 154.876 90.7466 154.876C90.9552 154.876 91.1232 154.851 91.2505 154.801C91.3813 154.748 91.4909 154.692 91.5793 154.632C91.6677 154.568 91.7437 154.511 91.8074 154.462C91.8746 154.409 91.9488 154.382 92.0301 154.382C92.1362 154.382 92.2158 154.423 92.2688 154.504L92.6454 154.982C92.5004 155.151 92.3431 155.295 92.1733 155.411C92.0036 155.524 91.8268 155.616 91.643 155.687C91.4626 155.754 91.2752 155.802 91.0807 155.83C90.8863 155.859 90.6936 155.873 90.5026 155.873C90.1667 155.873 89.8503 155.811 89.5532 155.687C89.2562 155.56 88.9963 155.376 88.7736 155.136C88.5543 154.895 88.3793 154.602 88.2485 154.255C88.1212 153.905 88.0575 153.507 88.0575 153.062C88.0575 152.662 88.1141 152.293 88.2273 151.953C88.344 151.61 88.5137 151.315 88.7364 151.067C88.9592 150.816 89.235 150.62 89.5638 150.479C89.8927 150.337 90.271 150.267 90.6989 150.267C91.1055 150.267 91.4609 150.332 91.7649 150.463C92.0726 150.594 92.3484 150.781 92.5923 151.025L92.2476 151.502ZM97.7431 155.793H97.1543C97.0306 155.793 96.9333 155.776 96.8626 155.74C96.7919 155.701 96.7389 155.625 96.7035 155.512L96.5868 155.125C96.4489 155.249 96.3128 155.358 96.1784 155.454C96.0476 155.546 95.9115 155.623 95.77 155.687C95.6286 155.751 95.4783 155.799 95.3192 155.83C95.1601 155.862 94.9833 155.878 94.7888 155.878C94.559 155.878 94.3468 155.848 94.1523 155.788C93.9579 155.724 93.7899 155.631 93.6485 155.507C93.5106 155.383 93.4027 155.229 93.3249 155.045C93.2472 154.862 93.2083 154.648 93.2083 154.404C93.2083 154.199 93.2613 153.997 93.3674 153.799C93.477 153.597 93.6573 153.417 93.9084 153.258C94.1594 153.095 94.4936 152.961 94.9108 152.855C95.328 152.749 95.846 152.689 96.4648 152.675V152.356C96.4648 151.992 96.387 151.723 96.2315 151.55C96.0794 151.373 95.8567 151.285 95.5632 151.285C95.351 151.285 95.1742 151.31 95.0328 151.359C94.8914 151.409 94.7676 151.465 94.6615 151.529C94.559 151.589 94.4635 151.644 94.3751 151.693C94.2867 151.743 94.1895 151.768 94.0834 151.768C93.995 151.768 93.919 151.745 93.8553 151.699C93.7917 151.653 93.7404 151.596 93.7015 151.529L93.4628 151.11C94.0887 150.537 94.8436 150.251 95.7276 150.251C96.0458 150.251 96.3287 150.304 96.5762 150.41C96.8273 150.512 97.0394 150.657 97.2127 150.845C97.3859 151.029 97.5168 151.25 97.6052 151.508C97.6971 151.766 97.7431 152.049 97.7431 152.356V155.793ZM95.1972 154.976C95.3316 154.976 95.4553 154.964 95.5685 154.939C95.6816 154.915 95.7877 154.877 95.8867 154.828C95.9893 154.778 96.0865 154.718 96.1784 154.648C96.2739 154.573 96.3694 154.487 96.4648 154.388V153.47C96.083 153.488 95.763 153.521 95.5048 153.571C95.2502 153.617 95.0452 153.677 94.8896 153.751C94.734 153.825 94.6226 153.912 94.5554 154.011C94.4918 154.11 94.46 154.218 94.46 154.335C94.46 154.564 94.5272 154.729 94.6615 154.828C94.7994 154.927 94.978 154.976 95.1972 154.976ZM100.819 155.878C100.348 155.878 99.9859 155.745 99.7313 155.48C99.4768 155.212 99.3495 154.842 99.3495 154.372V151.333H98.7979C98.7271 151.333 98.6653 151.31 98.6122 151.264C98.5627 151.218 98.538 151.149 98.538 151.057V150.537L99.4131 150.394L99.6889 148.909C99.7031 148.838 99.7349 148.783 99.7844 148.744C99.8374 148.705 99.9028 148.686 99.9806 148.686H100.66V150.399H102.092V151.333H100.66V154.282C100.66 154.451 100.702 154.584 100.787 154.679C100.872 154.775 100.985 154.823 101.126 154.823C101.208 154.823 101.275 154.814 101.328 154.796C101.384 154.775 101.432 154.754 101.471 154.732C101.513 154.711 101.551 154.692 101.582 154.674C101.614 154.653 101.646 154.642 101.678 154.642C101.717 154.642 101.749 154.653 101.773 154.674C101.798 154.692 101.825 154.72 101.853 154.759L102.245 155.395C102.054 155.555 101.835 155.675 101.588 155.756C101.34 155.837 101.084 155.878 100.819 155.878ZM104.528 150.351V155.793H103.218V150.351H104.528ZM104.725 148.766C104.725 148.879 104.702 148.985 104.656 149.084C104.61 149.183 104.548 149.269 104.47 149.344C104.396 149.418 104.307 149.478 104.205 149.524C104.102 149.566 103.993 149.588 103.876 149.588C103.763 149.588 103.655 149.566 103.552 149.524C103.453 149.478 103.367 149.418 103.293 149.344C103.218 149.269 103.158 149.183 103.112 149.084C103.07 148.985 103.049 148.879 103.049 148.766C103.049 148.649 103.07 148.539 103.112 148.437C103.158 148.334 103.218 148.246 103.293 148.172C103.367 148.097 103.453 148.039 103.552 147.997C103.655 147.951 103.763 147.928 103.876 147.928C103.993 147.928 104.102 147.951 104.205 147.997C104.307 148.039 104.396 148.097 104.47 148.172C104.548 148.246 104.61 148.334 104.656 148.437C104.702 148.539 104.725 148.649 104.725 148.766ZM108.336 150.267C108.743 150.267 109.111 150.332 109.44 150.463C109.772 150.594 110.055 150.779 110.288 151.02C110.522 151.26 110.702 151.554 110.829 151.9C110.956 152.247 111.02 152.634 111.02 153.062C111.02 153.493 110.956 153.882 110.829 154.229C110.702 154.575 110.522 154.87 110.288 155.114C110.055 155.358 109.772 155.546 109.44 155.677C109.111 155.807 108.743 155.873 108.336 155.873C107.93 155.873 107.56 155.807 107.228 155.677C106.895 155.546 106.611 155.358 106.374 155.114C106.141 154.87 105.958 154.575 105.828 154.229C105.7 153.882 105.637 153.493 105.637 153.062C105.637 152.634 105.7 152.247 105.828 151.9C105.958 151.554 106.141 151.26 106.374 151.02C106.611 150.779 106.895 150.594 107.228 150.463C107.56 150.332 107.93 150.267 108.336 150.267ZM108.336 154.865C108.789 154.865 109.123 154.713 109.339 154.409C109.558 154.105 109.668 153.659 109.668 153.072C109.668 152.485 109.558 152.038 109.339 151.73C109.123 151.423 108.789 151.269 108.336 151.269C107.877 151.269 107.537 151.425 107.318 151.736C107.099 152.043 106.989 152.489 106.989 153.072C106.989 153.656 107.099 154.101 107.318 154.409C107.537 154.713 107.877 154.865 108.336 154.865ZM112.042 155.793V150.351H112.843C113.013 150.351 113.124 150.431 113.177 150.59L113.267 151.02C113.377 150.907 113.492 150.804 113.612 150.712C113.736 150.62 113.865 150.541 113.999 150.473C114.137 150.406 114.284 150.355 114.44 150.32C114.595 150.284 114.765 150.267 114.949 150.267C115.246 150.267 115.509 150.318 115.739 150.42C115.969 150.519 116.16 150.661 116.312 150.845C116.467 151.025 116.584 151.242 116.662 151.497C116.743 151.748 116.784 152.026 116.784 152.33V155.793H115.474V152.33C115.474 151.997 115.396 151.741 115.241 151.561C115.088 151.377 114.859 151.285 114.551 151.285C114.325 151.285 114.113 151.336 113.915 151.439C113.717 151.541 113.529 151.681 113.352 151.858V155.793H112.042ZM124.307 149.519C124.268 149.597 124.222 149.651 124.169 149.683C124.12 149.715 124.06 149.731 123.989 149.731C123.918 149.731 123.839 149.704 123.75 149.651C123.662 149.595 123.558 149.533 123.437 149.466C123.317 149.399 123.176 149.338 123.013 149.285C122.854 149.229 122.665 149.201 122.445 149.201C122.247 149.201 122.074 149.225 121.926 149.275C121.781 149.321 121.657 149.386 121.554 149.471C121.455 149.556 121.381 149.658 121.332 149.779C121.282 149.895 121.257 150.024 121.257 150.166C121.257 150.346 121.307 150.496 121.406 150.617C121.508 150.737 121.643 150.839 121.809 150.924C121.975 151.009 122.164 151.085 122.377 151.152C122.589 151.22 122.804 151.292 123.024 151.37C123.246 151.444 123.464 151.532 123.676 151.635C123.888 151.734 124.077 151.861 124.243 152.017C124.41 152.169 124.542 152.356 124.641 152.579C124.744 152.802 124.795 153.072 124.795 153.391C124.795 153.737 124.735 154.062 124.615 154.366C124.498 154.667 124.325 154.93 124.095 155.157C123.869 155.38 123.591 155.556 123.262 155.687C122.933 155.814 122.557 155.878 122.133 155.878C121.889 155.878 121.648 155.853 121.411 155.804C121.174 155.758 120.946 155.691 120.727 155.602C120.511 155.514 120.308 155.408 120.117 155.284C119.93 155.16 119.762 155.022 119.613 154.87L120.027 154.186C120.066 154.137 120.112 154.096 120.165 154.064C120.221 154.029 120.283 154.011 120.35 154.011C120.439 154.011 120.534 154.048 120.637 154.122C120.739 154.193 120.86 154.273 120.998 154.361C121.139 154.45 121.303 154.531 121.491 154.605C121.682 154.676 121.91 154.711 122.175 154.711C122.582 154.711 122.896 154.616 123.119 154.425C123.342 154.23 123.453 153.953 123.453 153.592C123.453 153.391 123.402 153.226 123.299 153.099C123.2 152.972 123.068 152.865 122.902 152.781C122.735 152.692 122.546 152.618 122.334 152.558C122.122 152.498 121.906 152.432 121.687 152.362C121.468 152.291 121.252 152.206 121.04 152.107C120.828 152.008 120.639 151.879 120.472 151.72C120.306 151.561 120.172 151.363 120.069 151.126C119.97 150.885 119.921 150.59 119.921 150.24C119.921 149.961 119.976 149.688 120.085 149.423C120.198 149.158 120.361 148.923 120.573 148.718C120.789 148.513 121.052 148.348 121.363 148.225C121.675 148.101 122.03 148.039 122.43 148.039C122.882 148.039 123.299 148.11 123.681 148.251C124.063 148.393 124.388 148.591 124.657 148.845L124.307 149.519ZM128.058 150.267C128.401 150.267 128.716 150.321 129.002 150.431C129.292 150.541 129.542 150.702 129.75 150.914C129.959 151.122 130.122 151.38 130.238 151.688C130.355 151.992 130.413 152.34 130.413 152.733C130.413 152.832 130.408 152.915 130.397 152.982C130.39 153.046 130.374 153.097 130.35 153.136C130.328 153.171 130.298 153.198 130.259 153.216C130.221 153.23 130.171 153.237 130.111 153.237H126.748C126.787 153.795 126.937 154.206 127.199 154.467C127.461 154.729 127.807 154.86 128.239 154.86C128.451 154.86 128.633 154.835 128.785 154.785C128.941 154.736 129.075 154.681 129.188 154.621C129.305 154.561 129.406 154.506 129.49 154.457C129.579 154.407 129.664 154.382 129.745 154.382C129.798 154.382 129.844 154.393 129.883 154.414C129.922 154.435 129.955 154.465 129.984 154.504L130.366 154.982C130.221 155.151 130.058 155.295 129.878 155.411C129.697 155.524 129.508 155.616 129.31 155.687C129.116 155.754 128.916 155.802 128.711 155.83C128.509 155.859 128.313 155.873 128.122 155.873C127.744 155.873 127.392 155.811 127.067 155.687C126.741 155.56 126.458 155.374 126.218 155.13C125.977 154.883 125.788 154.579 125.65 154.218C125.512 153.854 125.444 153.433 125.444 152.956C125.444 152.584 125.504 152.236 125.624 151.911C125.744 151.582 125.916 151.297 126.138 151.057C126.365 150.813 126.639 150.62 126.96 150.479C127.286 150.337 127.652 150.267 128.058 150.267ZM128.085 151.205C127.703 151.205 127.404 151.313 127.189 151.529C126.973 151.745 126.835 152.05 126.775 152.446H129.236C129.236 152.277 129.213 152.118 129.167 151.969C129.121 151.817 129.05 151.684 128.955 151.571C128.859 151.458 128.739 151.37 128.594 151.306C128.449 151.239 128.279 151.205 128.085 151.205ZM131.476 155.793V150.351H132.245C132.379 150.351 132.473 150.376 132.526 150.426C132.579 150.475 132.615 150.56 132.632 150.68L132.712 151.338C132.906 151.002 133.134 150.737 133.396 150.542C133.658 150.348 133.951 150.251 134.276 150.251C134.545 150.251 134.768 150.313 134.945 150.436L134.775 151.418C134.764 151.481 134.741 151.527 134.706 151.555C134.671 151.58 134.623 151.593 134.563 151.593C134.51 151.593 134.437 151.58 134.345 151.555C134.253 151.531 134.131 151.518 133.979 151.518C133.707 151.518 133.474 151.594 133.279 151.746C133.085 151.895 132.92 152.114 132.786 152.404V155.793H131.476ZM138.532 155.793H137.344L135.18 150.351H136.268C136.363 150.351 136.443 150.374 136.506 150.42C136.573 150.466 136.619 150.525 136.644 150.595L137.694 153.502C137.754 153.672 137.804 153.838 137.843 154.001C137.885 154.163 137.922 154.326 137.954 154.488C137.986 154.326 138.021 154.163 138.06 154.001C138.103 153.838 138.156 153.672 138.219 153.502L139.296 150.595C139.321 150.525 139.365 150.466 139.429 150.42C139.492 150.374 139.568 150.351 139.657 150.351H140.691L138.532 155.793ZM142.857 150.351V155.793H141.547V150.351H142.857ZM143.053 148.766C143.053 148.879 143.03 148.985 142.984 149.084C142.938 149.183 142.876 149.269 142.799 149.344C142.724 149.418 142.636 149.478 142.534 149.524C142.431 149.566 142.321 149.588 142.205 149.588C142.092 149.588 141.984 149.566 141.881 149.524C141.782 149.478 141.696 149.418 141.621 149.344C141.547 149.269 141.487 149.183 141.441 149.084C141.398 148.985 141.377 148.879 141.377 148.766C141.377 148.649 141.398 148.539 141.441 148.437C141.487 148.334 141.547 148.246 141.621 148.172C141.696 148.097 141.782 148.039 141.881 147.997C141.984 147.951 142.092 147.928 142.205 147.928C142.321 147.928 142.431 147.951 142.534 147.997C142.636 148.039 142.724 148.097 142.799 148.172C142.876 148.246 142.938 148.334 142.984 148.437C143.03 148.539 143.053 148.649 143.053 148.766ZM148.166 151.502C148.127 151.552 148.088 151.591 148.049 151.619C148.014 151.647 147.961 151.662 147.89 151.662C147.823 151.662 147.758 151.642 147.694 151.603C147.63 151.561 147.554 151.515 147.466 151.465C147.378 151.412 147.271 151.366 147.148 151.327C147.027 151.285 146.877 151.264 146.697 151.264C146.467 151.264 146.265 151.306 146.092 151.391C145.919 151.472 145.774 151.591 145.657 151.746C145.544 151.902 145.459 152.091 145.403 152.314C145.346 152.533 145.318 152.782 145.318 153.062C145.318 153.352 145.348 153.61 145.408 153.836C145.472 154.062 145.562 154.253 145.679 154.409C145.795 154.561 145.937 154.678 146.103 154.759C146.269 154.837 146.456 154.876 146.665 154.876C146.874 154.876 147.042 154.851 147.169 154.801C147.3 154.748 147.409 154.692 147.498 154.632C147.586 154.568 147.662 154.511 147.726 154.462C147.793 154.409 147.867 154.382 147.949 154.382C148.055 154.382 148.134 154.423 148.187 154.504L148.564 154.982C148.419 155.151 148.262 155.295 148.092 155.411C147.922 155.524 147.745 155.616 147.561 155.687C147.381 155.754 147.194 155.802 146.999 155.83C146.805 155.859 146.612 155.873 146.421 155.873C146.085 155.873 145.769 155.811 145.472 155.687C145.175 155.56 144.915 155.376 144.692 155.136C144.473 154.895 144.298 154.602 144.167 154.255C144.04 153.905 143.976 153.507 143.976 153.062C143.976 152.662 144.033 152.293 144.146 151.953C144.262 151.61 144.432 151.315 144.655 151.067C144.878 150.816 145.153 150.62 145.482 150.479C145.811 150.337 146.189 150.267 146.617 150.267C147.024 150.267 147.379 150.332 147.683 150.463C147.991 150.594 148.267 150.781 148.511 151.025L148.166 151.502ZM151.646 150.267C151.989 150.267 152.304 150.321 152.59 150.431C152.88 150.541 153.129 150.702 153.338 150.914C153.547 151.122 153.709 151.38 153.826 151.688C153.943 151.992 154.001 152.34 154.001 152.733C154.001 152.832 153.996 152.915 153.985 152.982C153.978 153.046 153.962 153.097 153.937 153.136C153.916 153.171 153.886 153.198 153.847 153.216C153.808 153.23 153.759 153.237 153.699 153.237H150.336C150.375 153.795 150.525 154.206 150.787 154.467C151.048 154.729 151.395 154.86 151.826 154.86C152.039 154.86 152.221 154.835 152.373 154.785C152.528 154.736 152.663 154.681 152.776 154.621C152.892 154.561 152.993 154.506 153.078 154.457C153.166 154.407 153.251 154.382 153.333 154.382C153.386 154.382 153.432 154.393 153.471 154.414C153.509 154.435 153.543 154.465 153.571 154.504L153.953 154.982C153.808 155.151 153.646 155.295 153.465 155.411C153.285 155.524 153.096 155.616 152.898 155.687C152.703 155.754 152.503 155.802 152.298 155.83C152.097 155.859 151.901 155.873 151.71 155.873C151.331 155.873 150.98 155.811 150.654 155.687C150.329 155.56 150.046 155.374 149.806 155.13C149.565 154.883 149.376 154.579 149.238 154.218C149.1 153.854 149.031 153.433 149.031 152.956C149.031 152.584 149.091 152.236 149.212 151.911C149.332 151.582 149.503 151.297 149.726 151.057C149.952 150.813 150.226 150.62 150.548 150.479C150.873 150.337 151.239 150.267 151.646 150.267ZM151.673 151.205C151.291 151.205 150.992 151.313 150.776 151.529C150.561 151.745 150.423 152.05 150.362 152.446H152.823C152.823 152.277 152.801 152.118 152.755 151.969C152.709 151.817 152.638 151.684 152.542 151.571C152.447 151.458 152.327 151.37 152.182 151.306C152.037 151.239 151.867 151.205 151.673 151.205ZM158.294 151.412C158.258 151.469 158.221 151.509 158.182 151.534C158.143 151.555 158.094 151.566 158.034 151.566C157.97 151.566 157.901 151.548 157.827 151.513C157.756 151.478 157.673 151.439 157.578 151.396C157.482 151.35 157.373 151.31 157.249 151.274C157.129 151.239 156.985 151.221 156.819 151.221C156.561 151.221 156.358 151.276 156.209 151.386C156.061 151.495 155.987 151.639 155.987 151.815C155.987 151.932 156.024 152.031 156.098 152.112C156.176 152.19 156.276 152.259 156.4 152.319C156.528 152.379 156.671 152.434 156.83 152.484C156.989 152.53 157.152 152.581 157.318 152.637C157.484 152.694 157.647 152.759 157.806 152.834C157.965 152.904 158.106 152.996 158.23 153.109C158.357 153.219 158.458 153.352 158.532 153.507C158.61 153.663 158.649 153.85 158.649 154.069C158.649 154.331 158.601 154.573 158.506 154.796C158.41 155.015 158.271 155.206 158.087 155.369C157.903 155.528 157.675 155.654 157.403 155.745C157.134 155.834 156.825 155.878 156.474 155.878C156.287 155.878 156.103 155.86 155.923 155.825C155.746 155.793 155.575 155.747 155.408 155.687C155.246 155.627 155.094 155.556 154.952 155.475C154.814 155.394 154.692 155.305 154.586 155.21L154.889 154.711C154.928 154.651 154.973 154.605 155.027 154.573C155.08 154.542 155.147 154.526 155.228 154.526C155.309 154.526 155.385 154.549 155.456 154.595C155.53 154.641 155.615 154.69 155.711 154.743C155.806 154.796 155.918 154.846 156.045 154.892C156.176 154.938 156.34 154.961 156.538 154.961C156.694 154.961 156.826 154.943 156.936 154.907C157.049 154.869 157.141 154.819 157.212 154.759C157.286 154.699 157.339 154.63 157.371 154.552C157.406 154.471 157.424 154.388 157.424 154.303C157.424 154.176 157.385 154.071 157.307 153.99C157.233 153.909 157.132 153.838 157.005 153.778C156.881 153.718 156.738 153.665 156.575 153.619C156.416 153.569 156.252 153.516 156.082 153.46C155.916 153.403 155.751 153.338 155.589 153.263C155.43 153.185 155.286 153.088 155.159 152.972C155.035 152.855 154.935 152.712 154.857 152.542C154.783 152.372 154.745 152.167 154.745 151.927C154.745 151.704 154.79 151.492 154.878 151.29C154.966 151.089 155.095 150.914 155.265 150.765C155.438 150.613 155.652 150.493 155.907 150.404C156.165 150.313 156.462 150.267 156.798 150.267C157.173 150.267 157.514 150.328 157.822 150.452C158.129 150.576 158.386 150.739 158.591 150.94L158.294 151.412Z" fill="white"/>
</g>
<defs>
<clipPath id="clip0">
<rect width="152.365" height="41.1451" fill="white" transform="translate(5.81738 120.221)"/>
</clipPath>
</defs>
</svg>
